%TF.GenerationSoftware,KiCad,Pcbnew,9.0.6*%
%TF.CreationDate,2026-01-08T13:40:24-08:00*%
%TF.ProjectId,vrb,7672622e-6b69-4636-9164-5f7063625858,rev?*%
%TF.SameCoordinates,Original*%
%TF.FileFunction,Legend,Top*%
%TF.FilePolarity,Positive*%
%FSLAX46Y46*%
G04 Gerber Fmt 4.6, Leading zero omitted, Abs format (unit mm)*
G04 Created by KiCad (PCBNEW 9.0.6) date 2026-01-08 13:40:24*
%MOMM*%
%LPD*%
G01*
G04 APERTURE LIST*
%ADD10C,0.160000*%
%ADD11C,0.000000*%
%ADD12C,0.100000*%
%ADD13C,0.140000*%
%ADD14C,0.150000*%
%ADD15C,0.200000*%
%ADD16C,0.127000*%
%ADD17C,0.120000*%
G04 APERTURE END LIST*
D10*
G36*
X103557351Y-112214620D02*
G01*
X103590856Y-112221503D01*
X103621516Y-112232557D01*
X103649911Y-112247749D01*
X103699691Y-112290244D01*
X103740140Y-112349721D01*
X103769911Y-112427726D01*
X103786486Y-112525669D01*
X103788840Y-112584449D01*
X103786522Y-112642796D01*
X103779676Y-112696852D01*
X103768978Y-112744571D01*
X103754389Y-112787947D01*
X103736994Y-112825077D01*
X103716320Y-112857935D01*
X103693666Y-112885138D01*
X103668250Y-112908173D01*
X103641185Y-112926332D01*
X103611741Y-112940349D01*
X103546942Y-112955382D01*
X103521687Y-112956529D01*
X103486029Y-112954205D01*
X103452528Y-112947321D01*
X103421874Y-112936268D01*
X103393483Y-112921075D01*
X103343712Y-112878578D01*
X103303273Y-112819096D01*
X103273514Y-112741085D01*
X103256952Y-112643131D01*
X103254607Y-112584449D01*
X103256925Y-112526100D01*
X103263771Y-112472040D01*
X103274469Y-112424311D01*
X103289059Y-112380923D01*
X103306454Y-112343780D01*
X103327130Y-112310910D01*
X103349783Y-112283698D01*
X103375198Y-112260655D01*
X103402259Y-112242492D01*
X103431697Y-112228472D01*
X103463018Y-112218813D01*
X103496470Y-112213442D01*
X103521687Y-112212296D01*
X103557351Y-112214620D01*
G37*
G36*
X104722682Y-112214620D02*
G01*
X104756188Y-112221503D01*
X104786848Y-112232557D01*
X104815243Y-112247749D01*
X104865023Y-112290244D01*
X104905472Y-112349721D01*
X104935243Y-112427726D01*
X104951818Y-112525669D01*
X104954171Y-112584449D01*
X104951853Y-112642796D01*
X104945007Y-112696852D01*
X104934309Y-112744571D01*
X104919720Y-112787947D01*
X104902326Y-112825077D01*
X104881651Y-112857935D01*
X104858997Y-112885138D01*
X104833582Y-112908173D01*
X104806517Y-112926332D01*
X104777073Y-112940349D01*
X104712273Y-112955382D01*
X104687018Y-112956529D01*
X104651360Y-112954205D01*
X104617860Y-112947321D01*
X104587205Y-112936268D01*
X104558815Y-112921075D01*
X104509044Y-112878578D01*
X104468605Y-112819096D01*
X104438845Y-112741085D01*
X104422284Y-112643131D01*
X104419939Y-112584449D01*
X104422256Y-112526100D01*
X104429102Y-112472040D01*
X104439801Y-112424311D01*
X104454390Y-112380923D01*
X104471786Y-112343780D01*
X104492461Y-112310910D01*
X104515115Y-112283698D01*
X104540530Y-112260655D01*
X104567590Y-112242492D01*
X104597028Y-112228472D01*
X104628349Y-112218813D01*
X104661802Y-112213442D01*
X104687018Y-112212296D01*
X104722682Y-112214620D01*
G37*
G36*
X105844162Y-112672324D02*
G01*
X105878364Y-112678992D01*
X105908932Y-112689590D01*
X105935870Y-112703862D01*
X105958189Y-112720921D01*
X105976429Y-112740870D01*
X105989798Y-112762478D01*
X105998817Y-112786247D01*
X106003585Y-112822513D01*
X106001283Y-112847969D01*
X105994553Y-112871743D01*
X105968426Y-112913828D01*
X105925721Y-112947201D01*
X105866951Y-112968803D01*
X105806994Y-112974994D01*
X105769828Y-112972701D01*
X105735633Y-112966034D01*
X105705078Y-112955436D01*
X105678152Y-112941167D01*
X105655846Y-112924109D01*
X105637617Y-112904163D01*
X105624254Y-112882552D01*
X105615241Y-112858782D01*
X105610476Y-112822513D01*
X105612777Y-112797045D01*
X105619509Y-112773261D01*
X105645634Y-112731170D01*
X105688331Y-112697803D01*
X105747088Y-112676213D01*
X105806994Y-112670032D01*
X105844162Y-112672324D01*
G37*
G36*
X105839041Y-112194437D02*
G01*
X105868742Y-112201092D01*
X105895739Y-112211812D01*
X105919560Y-112226261D01*
X105939457Y-112243758D01*
X105955506Y-112264224D01*
X105967011Y-112286576D01*
X105974191Y-112311142D01*
X105976694Y-112337886D01*
X105974402Y-112363504D01*
X105967738Y-112387329D01*
X105941949Y-112429287D01*
X105900535Y-112461433D01*
X105845351Y-112480243D01*
X105806994Y-112483552D01*
X105774951Y-112481262D01*
X105745251Y-112474606D01*
X105718258Y-112463885D01*
X105694442Y-112449435D01*
X105674555Y-112431939D01*
X105658516Y-112411473D01*
X105647024Y-112389124D01*
X105639856Y-112364559D01*
X105637367Y-112337886D01*
X105639659Y-112312266D01*
X105646322Y-112288435D01*
X105672113Y-112246449D01*
X105713527Y-112214276D01*
X105768687Y-112195455D01*
X105806994Y-112192146D01*
X105839041Y-112194437D01*
G37*
G36*
X108228056Y-112214620D02*
G01*
X108261561Y-112221503D01*
X108292221Y-112232557D01*
X108320616Y-112247749D01*
X108370396Y-112290244D01*
X108410845Y-112349721D01*
X108440616Y-112427726D01*
X108457191Y-112525669D01*
X108459544Y-112584449D01*
X108457227Y-112642796D01*
X108450380Y-112696852D01*
X108439683Y-112744571D01*
X108425094Y-112787947D01*
X108407699Y-112825077D01*
X108387024Y-112857935D01*
X108364371Y-112885138D01*
X108338955Y-112908173D01*
X108311890Y-112926332D01*
X108282446Y-112940349D01*
X108217647Y-112955382D01*
X108192392Y-112956529D01*
X108156733Y-112954205D01*
X108123233Y-112947321D01*
X108092578Y-112936268D01*
X108064188Y-112921075D01*
X108014417Y-112878578D01*
X107973978Y-112819096D01*
X107944219Y-112741085D01*
X107927657Y-112643131D01*
X107925312Y-112584449D01*
X107927630Y-112526100D01*
X107934476Y-112472040D01*
X107945174Y-112424311D01*
X107959763Y-112380923D01*
X107977159Y-112343780D01*
X107997834Y-112310910D01*
X108020488Y-112283698D01*
X108045903Y-112260655D01*
X108072964Y-112242492D01*
X108102402Y-112228472D01*
X108133722Y-112218813D01*
X108167175Y-112213442D01*
X108192392Y-112212296D01*
X108228056Y-112214620D01*
G37*
G36*
X113481426Y-112214620D02*
G01*
X113514932Y-112221503D01*
X113545592Y-112232557D01*
X113573987Y-112247749D01*
X113623767Y-112290244D01*
X113664216Y-112349721D01*
X113693987Y-112427726D01*
X113710562Y-112525669D01*
X113712915Y-112584449D01*
X113710597Y-112642796D01*
X113703751Y-112696852D01*
X113693053Y-112744571D01*
X113678464Y-112787947D01*
X113661070Y-112825077D01*
X113640395Y-112857935D01*
X113617741Y-112885138D01*
X113592326Y-112908173D01*
X113565261Y-112926332D01*
X113535817Y-112940349D01*
X113471017Y-112955382D01*
X113445762Y-112956529D01*
X113410104Y-112954205D01*
X113376604Y-112947321D01*
X113345949Y-112936268D01*
X113317558Y-112921075D01*
X113267787Y-112878578D01*
X113227349Y-112819096D01*
X113197589Y-112741085D01*
X113181028Y-112643131D01*
X113178683Y-112584449D01*
X113181000Y-112526100D01*
X113187846Y-112472040D01*
X113198544Y-112424311D01*
X113213134Y-112380923D01*
X113230529Y-112343780D01*
X113251205Y-112310910D01*
X113273859Y-112283698D01*
X113299273Y-112260655D01*
X113326334Y-112242492D01*
X113355772Y-112228472D01*
X113387093Y-112218813D01*
X113420546Y-112213442D01*
X113445762Y-112212296D01*
X113481426Y-112214620D01*
G37*
G36*
X114646758Y-112214620D02*
G01*
X114680263Y-112221503D01*
X114710923Y-112232557D01*
X114739318Y-112247749D01*
X114789098Y-112290244D01*
X114829547Y-112349721D01*
X114859318Y-112427726D01*
X114875893Y-112525669D01*
X114878246Y-112584449D01*
X114875929Y-112642796D01*
X114869083Y-112696852D01*
X114858385Y-112744571D01*
X114843796Y-112787947D01*
X114826401Y-112825077D01*
X114805727Y-112857935D01*
X114783073Y-112885138D01*
X114757657Y-112908173D01*
X114730592Y-112926332D01*
X114701148Y-112940349D01*
X114636349Y-112955382D01*
X114611094Y-112956529D01*
X114575436Y-112954205D01*
X114541935Y-112947321D01*
X114511280Y-112936268D01*
X114482890Y-112921075D01*
X114433119Y-112878578D01*
X114392680Y-112819096D01*
X114362921Y-112741085D01*
X114346359Y-112643131D01*
X114344014Y-112584449D01*
X114346332Y-112526100D01*
X114353178Y-112472040D01*
X114363876Y-112424311D01*
X114378465Y-112380923D01*
X114395861Y-112343780D01*
X114416536Y-112310910D01*
X114439190Y-112283698D01*
X114464605Y-112260655D01*
X114491666Y-112242492D01*
X114521104Y-112228472D01*
X114552424Y-112218813D01*
X114585877Y-112213442D01*
X114611094Y-112212296D01*
X114646758Y-112214620D01*
G37*
G36*
X99652294Y-112657063D02*
G01*
X99366750Y-112657063D01*
X99511170Y-112281173D01*
X99652294Y-112657063D01*
G37*
G36*
X100853456Y-112685199D02*
G01*
X100505703Y-112685199D01*
X100853456Y-112295168D01*
X100853456Y-112685199D01*
G37*
G36*
X107115574Y-112657063D02*
G01*
X106830029Y-112657063D01*
X106974450Y-112281173D01*
X107115574Y-112657063D01*
G37*
G36*
X117299822Y-112245146D02*
G01*
X117327954Y-112251829D01*
X117352448Y-112262352D01*
X117373567Y-112276521D01*
X117390587Y-112293556D01*
X117403810Y-112313520D01*
X117412815Y-112335721D01*
X117417595Y-112360246D01*
X117418323Y-112374962D01*
X117416025Y-112400743D01*
X117409319Y-112424329D01*
X117383969Y-112463746D01*
X117343874Y-112491783D01*
X117290115Y-112505940D01*
X117268847Y-112507000D01*
X116983229Y-112507000D01*
X116983229Y-112242851D01*
X117268847Y-112242851D01*
X117299822Y-112245146D01*
G37*
G36*
X117880944Y-113324994D02*
G01*
X97305974Y-113324994D01*
X97305974Y-113172904D01*
X97439307Y-113172904D01*
X97728295Y-113172904D01*
X97728295Y-113001885D01*
X97873595Y-113001885D01*
X97941616Y-113065768D01*
X98025787Y-113119260D01*
X98124453Y-113159735D01*
X98234661Y-113184526D01*
X98337266Y-113191661D01*
X98396075Y-113189351D01*
X98452121Y-113182559D01*
X98498391Y-113172904D01*
X98869447Y-113172904D01*
X99170158Y-113172904D01*
X99279335Y-112887286D01*
X99738023Y-112887286D01*
X99845514Y-113172904D01*
X100158023Y-113172904D01*
X99963740Y-112691940D01*
X100191582Y-112691940D01*
X100191582Y-112912052D01*
X100853456Y-112912052D01*
X100853456Y-113172904D01*
X101125591Y-113172904D01*
X101125591Y-112912052D01*
X101271770Y-112912052D01*
X101271770Y-112685199D01*
X101125591Y-112685199D01*
X101125591Y-111995848D01*
X101350172Y-111995848D01*
X101612269Y-113172904D01*
X101917964Y-113172904D01*
X102126279Y-112423029D01*
X102332981Y-113172904D01*
X102638676Y-113172904D01*
X102769708Y-112584449D01*
X102989140Y-112584449D01*
X102991461Y-112649400D01*
X102998328Y-112711480D01*
X103009438Y-112769842D01*
X103024708Y-112825095D01*
X103043692Y-112876356D01*
X103066450Y-112924306D01*
X103092412Y-112968134D01*
X103121777Y-113008474D01*
X103153927Y-113044683D01*
X103189140Y-113077236D01*
X103226860Y-113105704D01*
X103267342Y-113130338D01*
X103310210Y-113150900D01*
X103355578Y-113167419D01*
X103403333Y-113179768D01*
X103453358Y-113187822D01*
X103521687Y-113191661D01*
X103575084Y-113189338D01*
X103626310Y-113182456D01*
X103674856Y-113171256D01*
X103721035Y-113155826D01*
X103764576Y-113136372D01*
X103805538Y-113112972D01*
X103879403Y-113054701D01*
X103941962Y-112981478D01*
X103992184Y-112893580D01*
X104028667Y-112791293D01*
X104049723Y-112675109D01*
X104054307Y-112584449D01*
X104154471Y-112584449D01*
X104156792Y-112649400D01*
X104163659Y-112711480D01*
X104174769Y-112769842D01*
X104190039Y-112825095D01*
X104209023Y-112876356D01*
X104231781Y-112924306D01*
X104257743Y-112968134D01*
X104287109Y-113008474D01*
X104319259Y-113044683D01*
X104354472Y-113077236D01*
X104392192Y-113105704D01*
X104432674Y-113130338D01*
X104475542Y-113150900D01*
X104520909Y-113167419D01*
X104568664Y-113179768D01*
X104618689Y-113187822D01*
X104687018Y-113191661D01*
X104740415Y-113189338D01*
X104791641Y-113182456D01*
X104840188Y-113171256D01*
X104886366Y-113155826D01*
X104929908Y-113136372D01*
X104970869Y-113112972D01*
X105044735Y-113054701D01*
X105107293Y-112981478D01*
X105157515Y-112893580D01*
X105176277Y-112840977D01*
X105348379Y-112840977D01*
X105350696Y-112880524D01*
X105357539Y-112918304D01*
X105384154Y-112988082D01*
X105427564Y-113050005D01*
X105487738Y-113103182D01*
X105564783Y-113145944D01*
X105658368Y-113175966D01*
X105767322Y-113190627D01*
X105806994Y-113191661D01*
X105865973Y-113189348D01*
X105921891Y-113182534D01*
X105967535Y-113172904D01*
X106332727Y-113172904D01*
X106633438Y-113172904D01*
X106742615Y-112887286D01*
X107201303Y-112887286D01*
X107308794Y-113172904D01*
X107621303Y-113172904D01*
X107383598Y-112584449D01*
X107659844Y-112584449D01*
X107662165Y-112649400D01*
X107669033Y-112711480D01*
X107680143Y-112769842D01*
X107695413Y-112825095D01*
X107714397Y-112876356D01*
X107737154Y-112924306D01*
X107763116Y-112968134D01*
X107792482Y-113008474D01*
X107824632Y-113044683D01*
X107859845Y-113077236D01*
X107897565Y-113105704D01*
X107938047Y-113130338D01*
X107980915Y-113150900D01*
X108026283Y-113167419D01*
X108074037Y-113179768D01*
X108124063Y-113187822D01*
X108192392Y-113191661D01*
X108245789Y-113189338D01*
X108297014Y-113182456D01*
X108345561Y-113171256D01*
X108391740Y-113155826D01*
X108435281Y-113136372D01*
X108476243Y-113112972D01*
X108550108Y-113054701D01*
X108595232Y-113001885D01*
X108823491Y-113001885D01*
X108891511Y-113065768D01*
X108975682Y-113119260D01*
X109074348Y-113159735D01*
X109184556Y-113184526D01*
X109287161Y-113191661D01*
X109345970Y-113189351D01*
X109402016Y-113182559D01*
X109454904Y-113171523D01*
X109504485Y-113156439D01*
X109549869Y-113137800D01*
X109591501Y-113115622D01*
X109628218Y-113090786D01*
X109660870Y-113062959D01*
X109688354Y-113033366D01*
X109711164Y-113001885D01*
X109863379Y-113001885D01*
X109931400Y-113065768D01*
X110015570Y-113119260D01*
X110114236Y-113159735D01*
X110224444Y-113184526D01*
X110327050Y-113191661D01*
X110385859Y-113189351D01*
X110441904Y-113182559D01*
X110494792Y-113171523D01*
X110544373Y-113156439D01*
X110589757Y-113137800D01*
X110631389Y-113115622D01*
X110668107Y-113090786D01*
X110700758Y-113062959D01*
X110728243Y-113033366D01*
X110751468Y-113001312D01*
X110769664Y-112968133D01*
X110783467Y-112932958D01*
X110792498Y-112896907D01*
X110796979Y-112859242D01*
X110797461Y-112841857D01*
X110795147Y-112808117D01*
X110788327Y-112776118D01*
X110761843Y-112717772D01*
X110718440Y-112667068D01*
X110657747Y-112625204D01*
X110579494Y-112594482D01*
X110543791Y-112586061D01*
X110583548Y-112572077D01*
X110620293Y-112554245D01*
X110653456Y-112533003D01*
X110683018Y-112508473D01*
X110708157Y-112481528D01*
X110729249Y-112451906D01*
X110745569Y-112420823D01*
X110757526Y-112387652D01*
X110764709Y-112353629D01*
X110767270Y-112318034D01*
X110767273Y-112316783D01*
X110764957Y-112277825D01*
X110758125Y-112240601D01*
X110731519Y-112171752D01*
X110688135Y-112110747D01*
X110628124Y-112058701D01*
X110551622Y-112017469D01*
X110480275Y-111995848D01*
X110859230Y-111995848D01*
X111334698Y-113172904D01*
X111665598Y-113172904D01*
X111816649Y-112804194D01*
X112149419Y-112804194D01*
X112799569Y-112804194D01*
X112799569Y-112584449D01*
X112913215Y-112584449D01*
X112915536Y-112649400D01*
X112922403Y-112711480D01*
X112933513Y-112769842D01*
X112948783Y-112825095D01*
X112967767Y-112876356D01*
X112990525Y-112924306D01*
X113016487Y-112968134D01*
X113045853Y-113008474D01*
X113078003Y-113044683D01*
X113113215Y-113077236D01*
X113150936Y-113105704D01*
X113191417Y-113130338D01*
X113234286Y-113150900D01*
X113279653Y-113167419D01*
X113327408Y-113179768D01*
X113377433Y-113187822D01*
X113445762Y-113191661D01*
X113499159Y-113189338D01*
X113550385Y-113182456D01*
X113598932Y-113171256D01*
X113645110Y-113155826D01*
X113688652Y-113136372D01*
X113729613Y-113112972D01*
X113803479Y-113054701D01*
X113866037Y-112981478D01*
X113916259Y-112893580D01*
X113952742Y-112791293D01*
X113973798Y-112675109D01*
X113978382Y-112584449D01*
X114078546Y-112584449D01*
X114080867Y-112649400D01*
X114087735Y-112711480D01*
X114098845Y-112769842D01*
X114114115Y-112825095D01*
X114133099Y-112876356D01*
X114155856Y-112924306D01*
X114181818Y-112968134D01*
X114211184Y-113008474D01*
X114243334Y-113044683D01*
X114278547Y-113077236D01*
X114316267Y-113105704D01*
X114356749Y-113130338D01*
X114399617Y-113150900D01*
X114444985Y-113167419D01*
X114492739Y-113179768D01*
X114542765Y-113187822D01*
X114611094Y-113191661D01*
X114664491Y-113189338D01*
X114715716Y-113182456D01*
X114764263Y-113171256D01*
X114810442Y-113155826D01*
X114853983Y-113136372D01*
X114894945Y-113112972D01*
X114968810Y-113054701D01*
X115031369Y-112981478D01*
X115081591Y-112893580D01*
X115118074Y-112791293D01*
X115139130Y-112675109D01*
X115143714Y-112584449D01*
X115141393Y-112519485D01*
X115134526Y-112457392D01*
X115123416Y-112399018D01*
X115108145Y-112343753D01*
X115089161Y-112292482D01*
X115066403Y-112244522D01*
X115040442Y-112200685D01*
X115011076Y-112160337D01*
X114987473Y-112133748D01*
X115223728Y-112133748D01*
X115223728Y-112369174D01*
X115467360Y-112271647D01*
X115467360Y-113172904D01*
X115739496Y-113172904D01*
X115739496Y-112804194D01*
X115883403Y-112804194D01*
X116533553Y-112804194D01*
X116533553Y-112577342D01*
X115883403Y-112577342D01*
X115883403Y-112804194D01*
X115739496Y-112804194D01*
X115739496Y-112507000D01*
X116694241Y-112507000D01*
X116694241Y-113172904D01*
X116983229Y-113172904D01*
X116983229Y-112742206D01*
X117203267Y-112742206D01*
X117425064Y-113172904D01*
X117747611Y-113172904D01*
X117490570Y-112700220D01*
X117529652Y-112679859D01*
X117565651Y-112655867D01*
X117598185Y-112628589D01*
X117627129Y-112598178D01*
X117651922Y-112565317D01*
X117672706Y-112529861D01*
X117688952Y-112492780D01*
X117700856Y-112453635D01*
X117708077Y-112413494D01*
X117710677Y-112371779D01*
X117710682Y-112369906D01*
X117708369Y-112326866D01*
X117701556Y-112285663D01*
X117690370Y-112246290D01*
X117675025Y-112209123D01*
X117632183Y-112141551D01*
X117574023Y-112084525D01*
X117501675Y-112039946D01*
X117460546Y-112022945D01*
X117416606Y-112009895D01*
X117369835Y-112000958D01*
X117320667Y-111996412D01*
X117295664Y-111995848D01*
X116694241Y-111995848D01*
X116694241Y-112507000D01*
X115739496Y-112507000D01*
X115739496Y-111995848D01*
X115568110Y-111995848D01*
X115223728Y-112133748D01*
X114987473Y-112133748D01*
X114978927Y-112124121D01*
X114943714Y-112091562D01*
X114905995Y-112063087D01*
X114865515Y-112038447D01*
X114822648Y-112017879D01*
X114777281Y-112001355D01*
X114729528Y-111988999D01*
X114679503Y-111980939D01*
X114611094Y-111977091D01*
X114557716Y-111979413D01*
X114506508Y-111986295D01*
X114457976Y-111997496D01*
X114411809Y-112012927D01*
X114368276Y-112032382D01*
X114327322Y-112055785D01*
X114253465Y-112114064D01*
X114190907Y-112187300D01*
X114140682Y-112275218D01*
X114104195Y-112377528D01*
X114083134Y-112493738D01*
X114078546Y-112584449D01*
X113978382Y-112584449D01*
X113976062Y-112519485D01*
X113969194Y-112457392D01*
X113958084Y-112399018D01*
X113942814Y-112343753D01*
X113923830Y-112292482D01*
X113901072Y-112244522D01*
X113875110Y-112200685D01*
X113845744Y-112160337D01*
X113813595Y-112124121D01*
X113778383Y-112091562D01*
X113740664Y-112063087D01*
X113700183Y-112038447D01*
X113657317Y-112017879D01*
X113611950Y-112001355D01*
X113564196Y-111988999D01*
X113514171Y-111980939D01*
X113445762Y-111977091D01*
X113392385Y-111979413D01*
X113341177Y-111986295D01*
X113292644Y-111997496D01*
X113246478Y-112012927D01*
X113202945Y-112032382D01*
X113161991Y-112055785D01*
X113088133Y-112114064D01*
X113025576Y-112187300D01*
X112975351Y-112275218D01*
X112938863Y-112377528D01*
X112917803Y-112493738D01*
X112913215Y-112584449D01*
X112799569Y-112584449D01*
X112799569Y-112577342D01*
X112149419Y-112577342D01*
X112149419Y-112804194D01*
X111816649Y-112804194D01*
X112147807Y-111995848D01*
X111847095Y-111995848D01*
X111506010Y-112871972D01*
X111171739Y-111995848D01*
X110859230Y-111995848D01*
X110480275Y-111995848D01*
X110459301Y-111989492D01*
X110352692Y-111977392D01*
X110332105Y-111977091D01*
X110226580Y-111986251D01*
X110122151Y-112013771D01*
X110071762Y-112034249D01*
X110023561Y-112058884D01*
X109978167Y-112087344D01*
X109935736Y-112119560D01*
X109871805Y-112182108D01*
X110048173Y-112342063D01*
X110093532Y-112296121D01*
X110136655Y-112260913D01*
X110169723Y-112240462D01*
X110203708Y-112225336D01*
X110274133Y-112209641D01*
X110322067Y-112207314D01*
X110357002Y-112209604D01*
X110389403Y-112216260D01*
X110418779Y-112226941D01*
X110444713Y-112241330D01*
X110466151Y-112258526D01*
X110483501Y-112278612D01*
X110495838Y-112300146D01*
X110503734Y-112323777D01*
X110506861Y-112352174D01*
X110504546Y-112379735D01*
X110497719Y-112404380D01*
X110487161Y-112425047D01*
X110472810Y-112442803D01*
X110433504Y-112469012D01*
X110378399Y-112482421D01*
X110353941Y-112483552D01*
X110229670Y-112483552D01*
X110229670Y-112696923D01*
X110380832Y-112696923D01*
X110415428Y-112699228D01*
X110446339Y-112705986D01*
X110471940Y-112716294D01*
X110493624Y-112730191D01*
X110510224Y-112746406D01*
X110522835Y-112765465D01*
X110531019Y-112786496D01*
X110534999Y-112809885D01*
X110535364Y-112819948D01*
X110533056Y-112844441D01*
X110526275Y-112867094D01*
X110500168Y-112906298D01*
X110456754Y-112937441D01*
X110394562Y-112958264D01*
X110323752Y-112964882D01*
X110265792Y-112962398D01*
X110215228Y-112954388D01*
X110179024Y-112943529D01*
X110145269Y-112928233D01*
X110083004Y-112884268D01*
X110038135Y-112840171D01*
X109863379Y-113001885D01*
X109711164Y-113001885D01*
X109711579Y-113001312D01*
X109729776Y-112968133D01*
X109743579Y-112932958D01*
X109752610Y-112896907D01*
X109757091Y-112859242D01*
X109757573Y-112841857D01*
X109755259Y-112808117D01*
X109748439Y-112776118D01*
X109721955Y-112717772D01*
X109678552Y-112667068D01*
X109617858Y-112625204D01*
X109539606Y-112594482D01*
X109503902Y-112586061D01*
X109543659Y-112572077D01*
X109580405Y-112554245D01*
X109613567Y-112533003D01*
X109643130Y-112508473D01*
X109668269Y-112481528D01*
X109689361Y-112451906D01*
X109705680Y-112420823D01*
X109717638Y-112387652D01*
X109724820Y-112353629D01*
X109727382Y-112318034D01*
X109727385Y-112316783D01*
X109725069Y-112277825D01*
X109718236Y-112240601D01*
X109691631Y-112171752D01*
X109648246Y-112110747D01*
X109588235Y-112058701D01*
X109511733Y-112017469D01*
X109419412Y-111989492D01*
X109312804Y-111977392D01*
X109292217Y-111977091D01*
X109186692Y-111986251D01*
X109082263Y-112013771D01*
X109031873Y-112034249D01*
X108983673Y-112058884D01*
X108938278Y-112087344D01*
X108895847Y-112119560D01*
X108831917Y-112182108D01*
X109008285Y-112342063D01*
X109053644Y-112296121D01*
X109096767Y-112260913D01*
X109129834Y-112240462D01*
X109163820Y-112225336D01*
X109234245Y-112209641D01*
X109282179Y-112207314D01*
X109317114Y-112209604D01*
X109349515Y-112216260D01*
X109378891Y-112226941D01*
X109404824Y-112241330D01*
X109426262Y-112258526D01*
X109443613Y-112278612D01*
X109455950Y-112300146D01*
X109463846Y-112323777D01*
X109466973Y-112352174D01*
X109464658Y-112379735D01*
X109457831Y-112404380D01*
X109447273Y-112425047D01*
X109432922Y-112442803D01*
X109393615Y-112469012D01*
X109338511Y-112482421D01*
X109314052Y-112483552D01*
X109189782Y-112483552D01*
X109189782Y-112696923D01*
X109340944Y-112696923D01*
X109375540Y-112699228D01*
X109406451Y-112705986D01*
X109432051Y-112716294D01*
X109453735Y-112730191D01*
X109470336Y-112746406D01*
X109482946Y-112765465D01*
X109491131Y-112786496D01*
X109495111Y-112809885D01*
X109495476Y-112819948D01*
X109493167Y-112844441D01*
X109486387Y-112867094D01*
X109460280Y-112906298D01*
X109416865Y-112937441D01*
X109354673Y-112958264D01*
X109283864Y-112964882D01*
X109225904Y-112962398D01*
X109175340Y-112954388D01*
X109139136Y-112943529D01*
X109105381Y-112928233D01*
X109043116Y-112884268D01*
X108998246Y-112840171D01*
X108823491Y-113001885D01*
X108595232Y-113001885D01*
X108612667Y-112981478D01*
X108662889Y-112893580D01*
X108699372Y-112791293D01*
X108720428Y-112675109D01*
X108725012Y-112584449D01*
X108722691Y-112519485D01*
X108715824Y-112457392D01*
X108704714Y-112399018D01*
X108689443Y-112343753D01*
X108670459Y-112292482D01*
X108647701Y-112244522D01*
X108621740Y-112200685D01*
X108592374Y-112160337D01*
X108560225Y-112124121D01*
X108525012Y-112091562D01*
X108487293Y-112063087D01*
X108446813Y-112038447D01*
X108403946Y-112017879D01*
X108358579Y-112001355D01*
X108310826Y-111988999D01*
X108260801Y-111980939D01*
X108192392Y-111977091D01*
X108139014Y-111979413D01*
X108087806Y-111986295D01*
X108039274Y-111997496D01*
X107993107Y-112012927D01*
X107949574Y-112032382D01*
X107908620Y-112055785D01*
X107834763Y-112114064D01*
X107772205Y-112187300D01*
X107721980Y-112275218D01*
X107685493Y-112377528D01*
X107664432Y-112493738D01*
X107659844Y-112584449D01*
X107383598Y-112584449D01*
X107145835Y-111995848D01*
X106814862Y-111995848D01*
X106544021Y-112657063D01*
X106332727Y-113172904D01*
X105967535Y-113172904D01*
X105973939Y-113171553D01*
X106022516Y-113156537D01*
X106066510Y-113138091D01*
X106106723Y-113116117D01*
X106141990Y-113091533D01*
X106173266Y-113063933D01*
X106199599Y-113034429D01*
X106221798Y-113002381D01*
X106239273Y-112968845D01*
X106252473Y-112933163D01*
X106261125Y-112896067D01*
X106265302Y-112857147D01*
X106265682Y-112840977D01*
X106256625Y-112774260D01*
X106229792Y-112711668D01*
X106185483Y-112655099D01*
X106124484Y-112607532D01*
X106088207Y-112588208D01*
X106048909Y-112572613D01*
X106043885Y-112570967D01*
X106081097Y-112553467D01*
X106115044Y-112532374D01*
X106145084Y-112508241D01*
X106171242Y-112481150D01*
X106192645Y-112452215D01*
X106209738Y-112421001D01*
X106221845Y-112388988D01*
X106229375Y-112355325D01*
X106232050Y-112319201D01*
X106222948Y-112245160D01*
X106196170Y-112176422D01*
X106152128Y-112114155D01*
X106091187Y-112060325D01*
X106014325Y-112017629D01*
X105970393Y-112001357D01*
X105923588Y-111989058D01*
X105873967Y-111980933D01*
X105822042Y-111977280D01*
X105806994Y-111977091D01*
X105754927Y-111979398D01*
X105705037Y-111986168D01*
X105657233Y-111997284D01*
X105612238Y-112012475D01*
X105570464Y-112031452D01*
X105532077Y-112054021D01*
X105497881Y-112079525D01*
X105467537Y-112108070D01*
X105441956Y-112138586D01*
X105420560Y-112171574D01*
X105404057Y-112205729D01*
X105391972Y-112241834D01*
X105384682Y-112278660D01*
X105382019Y-112316987D01*
X105382011Y-112319201D01*
X105384580Y-112337886D01*
X105391066Y-112385062D01*
X105417845Y-112446517D01*
X105462006Y-112501713D01*
X105522763Y-112547719D01*
X105570176Y-112570967D01*
X105530420Y-112586133D01*
X105493661Y-112605084D01*
X105460313Y-112627479D01*
X105430637Y-112653068D01*
X105405452Y-112680961D01*
X105384444Y-112711374D01*
X105368410Y-112742915D01*
X105356875Y-112776314D01*
X105350805Y-112822513D01*
X105348379Y-112840977D01*
X105176277Y-112840977D01*
X105193998Y-112791293D01*
X105215054Y-112675109D01*
X105219639Y-112584449D01*
X105217318Y-112519485D01*
X105210450Y-112457392D01*
X105199340Y-112399018D01*
X105184070Y-112343753D01*
X105165086Y-112292482D01*
X105142328Y-112244522D01*
X105116366Y-112200685D01*
X105087001Y-112160337D01*
X105054852Y-112124121D01*
X105019639Y-112091562D01*
X104981920Y-112063087D01*
X104941439Y-112038447D01*
X104898573Y-112017879D01*
X104853206Y-112001355D01*
X104805452Y-111988999D01*
X104755428Y-111980939D01*
X104687018Y-111977091D01*
X104633641Y-111979413D01*
X104582433Y-111986295D01*
X104533900Y-111997496D01*
X104487734Y-112012927D01*
X104444201Y-112032382D01*
X104403247Y-112055785D01*
X104329389Y-112114064D01*
X104266832Y-112187300D01*
X104216607Y-112275218D01*
X104180119Y-112377528D01*
X104159059Y-112493738D01*
X104154471Y-112584449D01*
X104054307Y-112584449D01*
X104051986Y-112519485D01*
X104045119Y-112457392D01*
X104034009Y-112399018D01*
X104018738Y-112343753D01*
X103999755Y-112292482D01*
X103976996Y-112244522D01*
X103951035Y-112200685D01*
X103921669Y-112160337D01*
X103889520Y-112124121D01*
X103854308Y-112091562D01*
X103816589Y-112063087D01*
X103776108Y-112038447D01*
X103733241Y-112017879D01*
X103687875Y-112001355D01*
X103640121Y-111988999D01*
X103590096Y-111980939D01*
X103521687Y-111977091D01*
X103468309Y-111979413D01*
X103417101Y-111986295D01*
X103368569Y-111997496D01*
X103322403Y-112012927D01*
X103278870Y-112032382D01*
X103237915Y-112055785D01*
X103164058Y-112114064D01*
X103101500Y-112187300D01*
X103051276Y-112275218D01*
X103014788Y-112377528D01*
X102993727Y-112493738D01*
X102989140Y-112584449D01*
X102769708Y-112584449D01*
X102900773Y-111995848D01*
X102613470Y-111995848D01*
X102470734Y-112722275D01*
X102265717Y-111995848D01*
X101995267Y-111995848D01*
X101790322Y-112722275D01*
X101647514Y-111995848D01*
X101350172Y-111995848D01*
X101125591Y-111995848D01*
X100808100Y-111995848D01*
X100197552Y-112685199D01*
X100191582Y-112691940D01*
X99963740Y-112691940D01*
X99682556Y-111995848D01*
X99351582Y-111995848D01*
X99080741Y-112657063D01*
X98869447Y-113172904D01*
X98498391Y-113172904D01*
X98505009Y-113171523D01*
X98554589Y-113156439D01*
X98599974Y-113137800D01*
X98641605Y-113115622D01*
X98678323Y-113090786D01*
X98710974Y-113062959D01*
X98738459Y-113033366D01*
X98761684Y-113001312D01*
X98779880Y-112968133D01*
X98793683Y-112932958D01*
X98802714Y-112896907D01*
X98807195Y-112859242D01*
X98807678Y-112841857D01*
X98805364Y-112808117D01*
X98798544Y-112776118D01*
X98772059Y-112717772D01*
X98728656Y-112667068D01*
X98667963Y-112625204D01*
X98589710Y-112594482D01*
X98554007Y-112586061D01*
X98593764Y-112572077D01*
X98630509Y-112554245D01*
X98663672Y-112533003D01*
X98693234Y-112508473D01*
X98718374Y-112481528D01*
X98739466Y-112451906D01*
X98755785Y-112420823D01*
X98767742Y-112387652D01*
X98774925Y-112353629D01*
X98777486Y-112318034D01*
X98777489Y-112316783D01*
X98775173Y-112277825D01*
X98768341Y-112240601D01*
X98741735Y-112171752D01*
X98698351Y-112110747D01*
X98638340Y-112058701D01*
X98561838Y-112017469D01*
X98469517Y-111989492D01*
X98362908Y-111977392D01*
X98342322Y-111977091D01*
X98236797Y-111986251D01*
X98132368Y-112013771D01*
X98081978Y-112034249D01*
X98033777Y-112058884D01*
X97988383Y-112087344D01*
X97945952Y-112119560D01*
X97882022Y-112182108D01*
X98058389Y-112342063D01*
X98103748Y-112296121D01*
X98146871Y-112260913D01*
X98179939Y-112240462D01*
X98213925Y-112225336D01*
X98284350Y-112209641D01*
X98332283Y-112207314D01*
X98367218Y-112209604D01*
X98399619Y-112216260D01*
X98428995Y-112226941D01*
X98454929Y-112241330D01*
X98476367Y-112258526D01*
X98493718Y-112278612D01*
X98506055Y-112300146D01*
X98513951Y-112323777D01*
X98517078Y-112352174D01*
X98514762Y-112379735D01*
X98507936Y-112404380D01*
X98497377Y-112425047D01*
X98483027Y-112442803D01*
X98443720Y-112469012D01*
X98388616Y-112482421D01*
X98364157Y-112483552D01*
X98239886Y-112483552D01*
X98239886Y-112696923D01*
X98391048Y-112696923D01*
X98425644Y-112699228D01*
X98456555Y-112705986D01*
X98482156Y-112716294D01*
X98503840Y-112730191D01*
X98520440Y-112746406D01*
X98533051Y-112765465D01*
X98541235Y-112786496D01*
X98545216Y-112809885D01*
X98545581Y-112819948D01*
X98543272Y-112844441D01*
X98536491Y-112867094D01*
X98510385Y-112906298D01*
X98466970Y-112937441D01*
X98404778Y-112958264D01*
X98333969Y-112964882D01*
X98276008Y-112962398D01*
X98225445Y-112954388D01*
X98189241Y-112943529D01*
X98155486Y-112928233D01*
X98093221Y-112884268D01*
X98048351Y-112840171D01*
X97873595Y-113001885D01*
X97728295Y-113001885D01*
X97728295Y-111995848D01*
X97439307Y-111995848D01*
X97439307Y-113172904D01*
X97305974Y-113172904D01*
X97305974Y-111843758D01*
X117880944Y-111843758D01*
X117880944Y-113324994D01*
G37*
G36*
X100569450Y-114490172D02*
G01*
X100634087Y-114501451D01*
X100755063Y-114545608D01*
X100861113Y-114616759D01*
X100947852Y-114712157D01*
X100982575Y-114767790D01*
X101010901Y-114828085D01*
X101032297Y-114892224D01*
X101046530Y-114960127D01*
X101053637Y-115056024D01*
X101049795Y-115126880D01*
X101038532Y-115194670D01*
X100994579Y-115321000D01*
X100924242Y-115430814D01*
X100880179Y-115478126D01*
X100830827Y-115519656D01*
X100776858Y-115554836D01*
X100718492Y-115583438D01*
X100656864Y-115604837D01*
X100591757Y-115618979D01*
X100502015Y-115625843D01*
X100434579Y-115621998D01*
X100369943Y-115610719D01*
X100248970Y-115566561D01*
X100142927Y-115495409D01*
X100056192Y-115400009D01*
X100021470Y-115344372D01*
X99993143Y-115284070D01*
X99971743Y-115219920D01*
X99957507Y-115152004D01*
X99950392Y-115056024D01*
X99954234Y-114985193D01*
X99965498Y-114917425D01*
X100009453Y-114791124D01*
X100079797Y-114681324D01*
X100123866Y-114634017D01*
X100173224Y-114592491D01*
X100227200Y-114557314D01*
X100285573Y-114528716D01*
X100347207Y-114507322D01*
X100412320Y-114493184D01*
X100502015Y-114486328D01*
X100569450Y-114490172D01*
G37*
G36*
X104498607Y-114515941D02*
G01*
X104618859Y-114560236D01*
X104725438Y-114631926D01*
X104813055Y-114728012D01*
X104848037Y-114783754D01*
X104876470Y-114843949D01*
X104897680Y-114907367D01*
X104911566Y-114974186D01*
X104917925Y-115061642D01*
X104902847Y-115192885D01*
X104858624Y-115314431D01*
X104787274Y-115421619D01*
X104742337Y-115468199D01*
X104692057Y-115509082D01*
X104637051Y-115543715D01*
X104577683Y-115571724D01*
X104515323Y-115592395D01*
X104449642Y-115605702D01*
X104369112Y-115611310D01*
X104066739Y-115611310D01*
X104066739Y-114500860D01*
X104369112Y-114500860D01*
X104498607Y-114515941D01*
G37*
G36*
X108517911Y-114490641D02*
G01*
X108564799Y-114501780D01*
X108605622Y-114519318D01*
X108640820Y-114542933D01*
X108669187Y-114571325D01*
X108691225Y-114604597D01*
X108706233Y-114641599D01*
X108714200Y-114682475D01*
X108715413Y-114707001D01*
X108711583Y-114749969D01*
X108700406Y-114789279D01*
X108658156Y-114854974D01*
X108591331Y-114901703D01*
X108501733Y-114925298D01*
X108466286Y-114927064D01*
X107990256Y-114927064D01*
X107990256Y-114486816D01*
X108466286Y-114486816D01*
X108517911Y-114490641D01*
G37*
G36*
X114934659Y-114490641D02*
G01*
X114981547Y-114501780D01*
X115022370Y-114519318D01*
X115057568Y-114542933D01*
X115085935Y-114571325D01*
X115107973Y-114604597D01*
X115122981Y-114641599D01*
X115130948Y-114682475D01*
X115132161Y-114707001D01*
X115128332Y-114749969D01*
X115117155Y-114789279D01*
X115074904Y-114854974D01*
X115008079Y-114901703D01*
X114918481Y-114925298D01*
X114883034Y-114927064D01*
X114407004Y-114927064D01*
X114407004Y-114486816D01*
X114883034Y-114486816D01*
X114934659Y-114490641D01*
G37*
G36*
X117644648Y-116290389D02*
G01*
X97338743Y-116290389D01*
X97338743Y-115740637D01*
X97560965Y-115740637D01*
X97723741Y-115859037D01*
X97907956Y-115954906D01*
X98006148Y-115992890D01*
X98106721Y-116023430D01*
X98208578Y-116046195D01*
X98311422Y-116061063D01*
X98445734Y-116068167D01*
X98558498Y-116064295D01*
X98664491Y-116052827D01*
X98760424Y-116034685D01*
X98849481Y-116009821D01*
X98928512Y-115979707D01*
X99000695Y-115943720D01*
X99063471Y-115903715D01*
X99119489Y-115858596D01*
X99167066Y-115810220D01*
X99207937Y-115757347D01*
X99241289Y-115701338D01*
X99267855Y-115641288D01*
X99299848Y-115510235D01*
X99305225Y-115424098D01*
X99301327Y-115352779D01*
X99289675Y-115285827D01*
X99271296Y-115225845D01*
X99245909Y-115170000D01*
X99175904Y-115072650D01*
X99155994Y-115056024D01*
X99454824Y-115056024D01*
X99470056Y-115232686D01*
X99515098Y-115401306D01*
X99588851Y-115558910D01*
X99689762Y-115701913D01*
X99815517Y-115826336D01*
X99886738Y-115880326D01*
X99962925Y-115928227D01*
X100043405Y-115969544D01*
X100128104Y-116004126D01*
X100215782Y-116031390D01*
X100306906Y-116051375D01*
X100399808Y-116063626D01*
X100495399Y-116068148D01*
X100502015Y-116068167D01*
X100687928Y-116052944D01*
X100751105Y-116036904D01*
X101803096Y-116036904D01*
X103317891Y-116036904D01*
X103317891Y-115611310D01*
X103585092Y-115611310D01*
X103585092Y-116036904D01*
X104380347Y-116036904D01*
X105669949Y-116036904D01*
X107226753Y-116036904D01*
X107226753Y-115619737D01*
X106151596Y-115619737D01*
X106151596Y-115247511D01*
X106854405Y-115247511D01*
X106854405Y-114927064D01*
X107508609Y-114927064D01*
X107508609Y-116036904D01*
X107990256Y-116036904D01*
X107990256Y-115319074D01*
X108356987Y-115319074D01*
X108726648Y-116036904D01*
X109264227Y-116036904D01*
X109994025Y-116036904D01*
X110475671Y-116036904D01*
X110475671Y-115270958D01*
X111282039Y-115270958D01*
X111282039Y-116036904D01*
X111763686Y-116036904D01*
X112086697Y-116036904D01*
X113643501Y-116036904D01*
X113643501Y-115619737D01*
X112568344Y-115619737D01*
X112568344Y-115247511D01*
X113271153Y-115247511D01*
X113271153Y-114927064D01*
X113925357Y-114927064D01*
X113925357Y-116036904D01*
X114407004Y-116036904D01*
X114407004Y-115319074D01*
X114773735Y-115319074D01*
X115143396Y-116036904D01*
X115680975Y-116036904D01*
X115865623Y-116036904D01*
X117422426Y-116036904D01*
X117422426Y-115619737D01*
X116347269Y-115619737D01*
X116347269Y-115247511D01*
X117050078Y-115247511D01*
X117050078Y-114844388D01*
X116347269Y-114844388D01*
X116347269Y-114492434D01*
X117411191Y-114492434D01*
X117411191Y-114075145D01*
X115865623Y-114075145D01*
X115865623Y-116036904D01*
X115680975Y-116036904D01*
X115252573Y-115249098D01*
X115317710Y-115215163D01*
X115377707Y-115175176D01*
X115431931Y-115129712D01*
X115480171Y-115079028D01*
X115521493Y-115024260D01*
X115556132Y-114965166D01*
X115583209Y-114903364D01*
X115603050Y-114838122D01*
X115615085Y-114771220D01*
X115619418Y-114701696D01*
X115619426Y-114698575D01*
X115615571Y-114626840D01*
X115604216Y-114558170D01*
X115585573Y-114492548D01*
X115559998Y-114430602D01*
X115488594Y-114317983D01*
X115391660Y-114222940D01*
X115271081Y-114148640D01*
X115202532Y-114120307D01*
X115129299Y-114098555D01*
X115051348Y-114083661D01*
X114969402Y-114076085D01*
X114927730Y-114075145D01*
X113925357Y-114075145D01*
X113925357Y-114927064D01*
X113271153Y-114927064D01*
X113271153Y-114844388D01*
X112568344Y-114844388D01*
X112568344Y-114492434D01*
X113632266Y-114492434D01*
X113632266Y-114075145D01*
X112086697Y-114075145D01*
X112086697Y-116036904D01*
X111763686Y-116036904D01*
X111763686Y-114075145D01*
X111282039Y-114075145D01*
X111282039Y-114831443D01*
X110475671Y-114831443D01*
X110475671Y-114075145D01*
X109994025Y-114075145D01*
X109994025Y-116036904D01*
X109264227Y-116036904D01*
X108835825Y-115249098D01*
X108900962Y-115215163D01*
X108960959Y-115175176D01*
X109015183Y-115129712D01*
X109063423Y-115079028D01*
X109104745Y-115024260D01*
X109139384Y-114965166D01*
X109166461Y-114903364D01*
X109186302Y-114838122D01*
X109198337Y-114771220D01*
X109202670Y-114701696D01*
X109202678Y-114698575D01*
X109198823Y-114626840D01*
X109187468Y-114558170D01*
X109168825Y-114492548D01*
X109143250Y-114430602D01*
X109071846Y-114317983D01*
X108974912Y-114222940D01*
X108854333Y-114148640D01*
X108785784Y-114120307D01*
X108712551Y-114098555D01*
X108634600Y-114083661D01*
X108552653Y-114076085D01*
X108510982Y-114075145D01*
X107508609Y-114075145D01*
X107508609Y-114927064D01*
X106854405Y-114927064D01*
X106854405Y-114844388D01*
X106151596Y-114844388D01*
X106151596Y-114492434D01*
X107215518Y-114492434D01*
X107215518Y-114075145D01*
X105669949Y-114075145D01*
X105669949Y-116036904D01*
X104380347Y-116036904D01*
X104566597Y-116021695D01*
X104744078Y-115976787D01*
X104909010Y-115903619D01*
X105057115Y-115804367D01*
X105123459Y-115745917D01*
X105184033Y-115682136D01*
X105238178Y-115613772D01*
X105285870Y-115540846D01*
X105326268Y-115464707D01*
X105359654Y-115384806D01*
X105385282Y-115302963D01*
X105403456Y-115218143D01*
X105416303Y-115061642D01*
X105401078Y-114888984D01*
X105356029Y-114724054D01*
X105282173Y-114569734D01*
X105180963Y-114429594D01*
X105054650Y-114307683D01*
X104983032Y-114254842D01*
X104906451Y-114208091D01*
X104825511Y-114167886D01*
X104740377Y-114134440D01*
X104652276Y-114108316D01*
X104560783Y-114089508D01*
X104380347Y-114075145D01*
X103585092Y-114075145D01*
X103585092Y-115611310D01*
X103317891Y-115611310D01*
X102284743Y-115611310D01*
X102284743Y-114075145D01*
X101803096Y-114075145D01*
X101803096Y-116036904D01*
X100751105Y-116036904D01*
X100864888Y-116008016D01*
X101029460Y-115934760D01*
X101177723Y-115835162D01*
X101244472Y-115776311D01*
X101305596Y-115712017D01*
X101360602Y-115642817D01*
X101409301Y-115568899D01*
X101450983Y-115491345D01*
X101485779Y-115409839D01*
X101513008Y-115325937D01*
X101532876Y-115238845D01*
X101544915Y-115150391D01*
X101549200Y-115059471D01*
X101549206Y-115056024D01*
X101533974Y-114879393D01*
X101488929Y-114710785D01*
X101415170Y-114553177D01*
X101314248Y-114410162D01*
X101188479Y-114285726D01*
X101117253Y-114231730D01*
X101041060Y-114183824D01*
X100960578Y-114142504D01*
X100875877Y-114107920D01*
X100788202Y-114080655D01*
X100697081Y-114060670D01*
X100604187Y-114048421D01*
X100508605Y-114043901D01*
X100502015Y-114043882D01*
X100316127Y-114059104D01*
X100139181Y-114104032D01*
X99974614Y-114177290D01*
X99826347Y-114276894D01*
X99759592Y-114335750D01*
X99698463Y-114400048D01*
X99643451Y-114469253D01*
X99594746Y-114543175D01*
X99553058Y-114620732D01*
X99518258Y-114702240D01*
X99491026Y-114786139D01*
X99471155Y-114873227D01*
X99459114Y-114961671D01*
X99454829Y-115052576D01*
X99454824Y-115056024D01*
X99155994Y-115056024D01*
X99078434Y-114991255D01*
X98949594Y-114925406D01*
X98783742Y-114876940D01*
X98728445Y-114866736D01*
X98322514Y-114799447D01*
X98238399Y-114781069D01*
X98174433Y-114757109D01*
X98139633Y-114735284D01*
X98114436Y-114709275D01*
X98091885Y-114651874D01*
X98090117Y-114625790D01*
X98093974Y-114593955D01*
X98105345Y-114565004D01*
X98149539Y-114516266D01*
X98227581Y-114478530D01*
X98347909Y-114457004D01*
X98406533Y-114454943D01*
X98488703Y-114458884D01*
X98569337Y-114470845D01*
X98723994Y-114517884D01*
X98882292Y-114599527D01*
X99008470Y-114687462D01*
X99263337Y-114331722D01*
X99113415Y-114230557D01*
X98932213Y-114145467D01*
X98729809Y-114084564D01*
X98625907Y-114065449D01*
X98521905Y-114054429D01*
X98440117Y-114051698D01*
X98330319Y-114055572D01*
X98227550Y-114067061D01*
X98135510Y-114085125D01*
X98050467Y-114109878D01*
X97975748Y-114139713D01*
X97907883Y-114175368D01*
X97849384Y-114214918D01*
X97797573Y-114259543D01*
X97753941Y-114307474D01*
X97716924Y-114359909D01*
X97687116Y-114415785D01*
X97664036Y-114475778D01*
X97638667Y-114608013D01*
X97636558Y-114662183D01*
X97640444Y-114734451D01*
X97652019Y-114802337D01*
X97670353Y-114863525D01*
X97695609Y-114920341D01*
X97726989Y-114971672D01*
X97764807Y-115018525D01*
X97859550Y-115098393D01*
X97981862Y-115159772D01*
X98132126Y-115200005D01*
X98563337Y-115275721D01*
X98658249Y-115296118D01*
X98731061Y-115321676D01*
X98771480Y-115344551D01*
X98801421Y-115371442D01*
X98819374Y-115398372D01*
X98830362Y-115429037D01*
X98834935Y-115471726D01*
X98831069Y-115506175D01*
X98819635Y-115537509D01*
X98775694Y-115589869D01*
X98698980Y-115630941D01*
X98580480Y-115657026D01*
X98482126Y-115662235D01*
X98396189Y-115658249D01*
X98313000Y-115645978D01*
X98236509Y-115626539D01*
X98160481Y-115599025D01*
X98004092Y-115517007D01*
X97829754Y-115390515D01*
X97560965Y-115740637D01*
X97338743Y-115740637D01*
X97338743Y-113821660D01*
X117644648Y-113821660D01*
X117644648Y-116290389D01*
G37*
D11*
G36*
X121588779Y-130543569D02*
G01*
X121599852Y-130544649D01*
X121610842Y-130546449D01*
X121621706Y-130548969D01*
X121632402Y-130552210D01*
X121642890Y-130556170D01*
X121653126Y-130560850D01*
X121663069Y-130566251D01*
X121672677Y-130572371D01*
X121681908Y-130579212D01*
X121690720Y-130586772D01*
X121699072Y-130595053D01*
X121706922Y-130604054D01*
X121714227Y-130613775D01*
X121720946Y-130624215D01*
X121727037Y-130635376D01*
X122618114Y-132214392D01*
X122622998Y-132224850D01*
X122627098Y-132235400D01*
X122630432Y-132246014D01*
X122633017Y-132256665D01*
X122634869Y-132267324D01*
X122636005Y-132277965D01*
X122636442Y-132288559D01*
X122636198Y-132299078D01*
X122635288Y-132309494D01*
X122633730Y-132319780D01*
X122631540Y-132329908D01*
X122628736Y-132339850D01*
X122625334Y-132349578D01*
X122621352Y-132359065D01*
X122616806Y-132368282D01*
X122611712Y-132377202D01*
X122606089Y-132385796D01*
X122599952Y-132394038D01*
X122593319Y-132401899D01*
X122586207Y-132409352D01*
X122578632Y-132416368D01*
X122570611Y-132422920D01*
X122562161Y-132428980D01*
X122553299Y-132434521D01*
X122544043Y-132439514D01*
X122534408Y-132443931D01*
X122524411Y-132447745D01*
X122514071Y-132450928D01*
X122503402Y-132453452D01*
X122492423Y-132455289D01*
X122481151Y-132456412D01*
X122469601Y-132456792D01*
X120687447Y-132456792D01*
X120675897Y-132456412D01*
X120664624Y-132455289D01*
X120653644Y-132453452D01*
X120642974Y-132450928D01*
X120632630Y-132447745D01*
X120622629Y-132443931D01*
X120612987Y-132439514D01*
X120603722Y-132434521D01*
X120594849Y-132428980D01*
X120586385Y-132422920D01*
X120578347Y-132416368D01*
X120570751Y-132409352D01*
X120563614Y-132401899D01*
X120556953Y-132394038D01*
X120550783Y-132385796D01*
X120545122Y-132377202D01*
X120539986Y-132368282D01*
X120535392Y-132359065D01*
X120531356Y-132349578D01*
X120527895Y-132339850D01*
X120525025Y-132329908D01*
X120522763Y-132319780D01*
X120521126Y-132309494D01*
X120520130Y-132299078D01*
X120519791Y-132288559D01*
X120520127Y-132277965D01*
X120521153Y-132267324D01*
X120522887Y-132256665D01*
X120525345Y-132246014D01*
X120528543Y-132235400D01*
X120532498Y-132224850D01*
X120537227Y-132214392D01*
X120607549Y-132089778D01*
X121428321Y-132089778D01*
X121428495Y-132097403D01*
X121429013Y-132104910D01*
X121429868Y-132112291D01*
X121431055Y-132119538D01*
X121432567Y-132126642D01*
X121434397Y-132133595D01*
X121436541Y-132140390D01*
X121438990Y-132147017D01*
X121441740Y-132153470D01*
X121444783Y-132159739D01*
X121448114Y-132165817D01*
X121451726Y-132171696D01*
X121455614Y-132177367D01*
X121459770Y-132182823D01*
X121464188Y-132188054D01*
X121468863Y-132193054D01*
X121473788Y-132197814D01*
X121478957Y-132202325D01*
X121484364Y-132206581D01*
X121490001Y-132210571D01*
X121495864Y-132214289D01*
X121501946Y-132217727D01*
X121508240Y-132220876D01*
X121514740Y-132223728D01*
X121521441Y-132226274D01*
X121528335Y-132228508D01*
X121535417Y-132230420D01*
X121542680Y-132232003D01*
X121550118Y-132233248D01*
X121557725Y-132234147D01*
X121565494Y-132234693D01*
X121573420Y-132234877D01*
X121581345Y-132234693D01*
X121589115Y-132234147D01*
X121596722Y-132233248D01*
X121604160Y-132232003D01*
X121611423Y-132230420D01*
X121618505Y-132228508D01*
X121625399Y-132226274D01*
X121632099Y-132223728D01*
X121638600Y-132220876D01*
X121644894Y-132217727D01*
X121650975Y-132214289D01*
X121656838Y-132210571D01*
X121662476Y-132206581D01*
X121667882Y-132202325D01*
X121673051Y-132197814D01*
X121677976Y-132193054D01*
X121682651Y-132188054D01*
X121687070Y-132182823D01*
X121691226Y-132177367D01*
X121695113Y-132171696D01*
X121698726Y-132165817D01*
X121702057Y-132159739D01*
X121705100Y-132153470D01*
X121707850Y-132147017D01*
X121710299Y-132140390D01*
X121712442Y-132133595D01*
X121714273Y-132126642D01*
X121715785Y-132119538D01*
X121716971Y-132112291D01*
X121717827Y-132104910D01*
X121718345Y-132097403D01*
X121718519Y-132089778D01*
X121718519Y-132086364D01*
X121718345Y-132078739D01*
X121717827Y-132071231D01*
X121716971Y-132063850D01*
X121715785Y-132056604D01*
X121714273Y-132049500D01*
X121712442Y-132042547D01*
X121710299Y-132035752D01*
X121707850Y-132029125D01*
X121705100Y-132022672D01*
X121702057Y-132016403D01*
X121698726Y-132010324D01*
X121695113Y-132004446D01*
X121691226Y-131998775D01*
X121687070Y-131993319D01*
X121682651Y-131988087D01*
X121677976Y-131983088D01*
X121673051Y-131978328D01*
X121667882Y-131973817D01*
X121662476Y-131969561D01*
X121656838Y-131965571D01*
X121650975Y-131961852D01*
X121644894Y-131958415D01*
X121638600Y-131955266D01*
X121632099Y-131952414D01*
X121625399Y-131949868D01*
X121618505Y-131947634D01*
X121611423Y-131945722D01*
X121604160Y-131944139D01*
X121596722Y-131942894D01*
X121589115Y-131941995D01*
X121581345Y-131941449D01*
X121573420Y-131941265D01*
X121565494Y-131941449D01*
X121557725Y-131941995D01*
X121550118Y-131942894D01*
X121542680Y-131944139D01*
X121535417Y-131945722D01*
X121528335Y-131947634D01*
X121521441Y-131949868D01*
X121514740Y-131952414D01*
X121508240Y-131955266D01*
X121501946Y-131958415D01*
X121495864Y-131961852D01*
X121490001Y-131965571D01*
X121484364Y-131969561D01*
X121478957Y-131973817D01*
X121473788Y-131978328D01*
X121468863Y-131983088D01*
X121464188Y-131988087D01*
X121459770Y-131993319D01*
X121455614Y-131998775D01*
X121451726Y-132004446D01*
X121448114Y-132010324D01*
X121444783Y-132016403D01*
X121441740Y-132022672D01*
X121438990Y-132029125D01*
X121436541Y-132035752D01*
X121434397Y-132042547D01*
X121432567Y-132049500D01*
X121431055Y-132056604D01*
X121429868Y-132063850D01*
X121429013Y-132071231D01*
X121428495Y-132078739D01*
X121428321Y-132086364D01*
X121428321Y-132089778D01*
X120607549Y-132089778D01*
X120609476Y-132086364D01*
X121167227Y-131098013D01*
X121425988Y-131098013D01*
X121426000Y-131102487D01*
X121426196Y-131107032D01*
X121426580Y-131111642D01*
X121500000Y-131753490D01*
X121500554Y-131757761D01*
X121501257Y-131761929D01*
X121502104Y-131765993D01*
X121503094Y-131769951D01*
X121504224Y-131773799D01*
X121505491Y-131777537D01*
X121506893Y-131781161D01*
X121508428Y-131784670D01*
X121510093Y-131788062D01*
X121511886Y-131791334D01*
X121513803Y-131794484D01*
X121515843Y-131797510D01*
X121518003Y-131800410D01*
X121520281Y-131803181D01*
X121522674Y-131805821D01*
X121525179Y-131808329D01*
X121527794Y-131810702D01*
X121530516Y-131812937D01*
X121533344Y-131815033D01*
X121536274Y-131816988D01*
X121539305Y-131818798D01*
X121542432Y-131820463D01*
X121545655Y-131821980D01*
X121548971Y-131823346D01*
X121552376Y-131824559D01*
X121555869Y-131825618D01*
X121559447Y-131826520D01*
X121563107Y-131827263D01*
X121566847Y-131827845D01*
X121570665Y-131828263D01*
X121574558Y-131828516D01*
X121578524Y-131828600D01*
X121582489Y-131828516D01*
X121586382Y-131828263D01*
X121590200Y-131827845D01*
X121593940Y-131827263D01*
X121597601Y-131826520D01*
X121601179Y-131825618D01*
X121604672Y-131824559D01*
X121608077Y-131823346D01*
X121611392Y-131821980D01*
X121614615Y-131820463D01*
X121617743Y-131818798D01*
X121620773Y-131816988D01*
X121623703Y-131815033D01*
X121626531Y-131812937D01*
X121629254Y-131810702D01*
X121631869Y-131808329D01*
X121634374Y-131805821D01*
X121636767Y-131803181D01*
X121639044Y-131800410D01*
X121641204Y-131797510D01*
X121643244Y-131794484D01*
X121645162Y-131791334D01*
X121646954Y-131788062D01*
X121648619Y-131784670D01*
X121650154Y-131781161D01*
X121651557Y-131777537D01*
X121652824Y-131773799D01*
X121653954Y-131769951D01*
X121654944Y-131765993D01*
X121655791Y-131761929D01*
X121656493Y-131757761D01*
X121657048Y-131753490D01*
X121730468Y-131111642D01*
X121730853Y-131107032D01*
X121731051Y-131102487D01*
X121731064Y-131098013D01*
X121730894Y-131093614D01*
X121730544Y-131089297D01*
X121730016Y-131085067D01*
X121729314Y-131080929D01*
X121728438Y-131076887D01*
X121727393Y-131072949D01*
X121726180Y-131069118D01*
X121724802Y-131065400D01*
X121723262Y-131061801D01*
X121721561Y-131058325D01*
X121719703Y-131054979D01*
X121717690Y-131051767D01*
X121715525Y-131048694D01*
X121713209Y-131045767D01*
X121710746Y-131042990D01*
X121708138Y-131040369D01*
X121705388Y-131037909D01*
X121702498Y-131035615D01*
X121699470Y-131033492D01*
X121696307Y-131031547D01*
X121693012Y-131029784D01*
X121689587Y-131028208D01*
X121686035Y-131026825D01*
X121682358Y-131025640D01*
X121678558Y-131024659D01*
X121674639Y-131023887D01*
X121670602Y-131023328D01*
X121666450Y-131022990D01*
X121662186Y-131022875D01*
X121494879Y-131022875D01*
X121490615Y-131022990D01*
X121486463Y-131023328D01*
X121482426Y-131023887D01*
X121478507Y-131024659D01*
X121474707Y-131025640D01*
X121471030Y-131026825D01*
X121467477Y-131028208D01*
X121464052Y-131029784D01*
X121460757Y-131031547D01*
X121457594Y-131033492D01*
X121454566Y-131035615D01*
X121451676Y-131037909D01*
X121448925Y-131040369D01*
X121446317Y-131042990D01*
X121443854Y-131045767D01*
X121441538Y-131048694D01*
X121439372Y-131051767D01*
X121437358Y-131054979D01*
X121435500Y-131058325D01*
X121433799Y-131061801D01*
X121432258Y-131065400D01*
X121430879Y-131069118D01*
X121429665Y-131072949D01*
X121428619Y-131076887D01*
X121427743Y-131080929D01*
X121427039Y-131085067D01*
X121426511Y-131089297D01*
X121426159Y-131093614D01*
X121425988Y-131098013D01*
X121167227Y-131098013D01*
X121428304Y-130635376D01*
X121434393Y-130624215D01*
X121441111Y-130613775D01*
X121448414Y-130604054D01*
X121456263Y-130595053D01*
X121464613Y-130586772D01*
X121473425Y-130579212D01*
X121482655Y-130572371D01*
X121492262Y-130566251D01*
X121502204Y-130560850D01*
X121512440Y-130556170D01*
X121522927Y-130552210D01*
X121533623Y-130548969D01*
X121544486Y-130546449D01*
X121555476Y-130544649D01*
X121566549Y-130543569D01*
X121577664Y-130543209D01*
X121588779Y-130543569D01*
G37*
D12*
X116500000Y-129500000D02*
X123100000Y-129500000D01*
X123100000Y-133500000D01*
X116500000Y-133500000D01*
X116500000Y-129500000D01*
D13*
G36*
X113953700Y-101955307D02*
G01*
X113979555Y-101959819D01*
X114027945Y-101977481D01*
X114070365Y-102005942D01*
X114105061Y-102044101D01*
X114118950Y-102066354D01*
X114130280Y-102090472D01*
X114138839Y-102116128D01*
X114144532Y-102143289D01*
X114147375Y-102181648D01*
X114145838Y-102209990D01*
X114141333Y-102237106D01*
X114123752Y-102287638D01*
X114095617Y-102331564D01*
X114077992Y-102350488D01*
X114058251Y-102367100D01*
X114036663Y-102381173D01*
X114013317Y-102392613D01*
X113988666Y-102401173D01*
X113962623Y-102406830D01*
X113926726Y-102409575D01*
X113899752Y-102408037D01*
X113873897Y-102403526D01*
X113825508Y-102385863D01*
X113783091Y-102357402D01*
X113748397Y-102319242D01*
X113734508Y-102296987D01*
X113723177Y-102272866D01*
X113714617Y-102247206D01*
X113708923Y-102220040D01*
X113706077Y-102181648D01*
X113707614Y-102153315D01*
X113712119Y-102126208D01*
X113729701Y-102075688D01*
X113757839Y-102031768D01*
X113775466Y-102012845D01*
X113795210Y-101996235D01*
X113816800Y-101982164D01*
X113840149Y-101970724D01*
X113864803Y-101962167D01*
X113890848Y-101956512D01*
X113926726Y-101953769D01*
X113953700Y-101955307D01*
G37*
G36*
X111153238Y-101955494D02*
G01*
X111171993Y-101959950D01*
X111188322Y-101966965D01*
X111202401Y-101976411D01*
X111213748Y-101987768D01*
X111222563Y-102001077D01*
X111228567Y-102015878D01*
X111231753Y-102032228D01*
X111232239Y-102042039D01*
X111230707Y-102059226D01*
X111226236Y-102074950D01*
X111209336Y-102101228D01*
X111182606Y-102119919D01*
X111146767Y-102129357D01*
X111132588Y-102130064D01*
X110942176Y-102130064D01*
X110942176Y-101953965D01*
X111132588Y-101953965D01*
X111153238Y-101955494D01*
G37*
G36*
X111985679Y-102230106D02*
G01*
X111795316Y-102230106D01*
X111891597Y-101979512D01*
X111985679Y-102230106D01*
G37*
G36*
X112745293Y-101965615D02*
G01*
X112793394Y-101983333D01*
X112836026Y-102012009D01*
X112871072Y-102050443D01*
X112885065Y-102072740D01*
X112896438Y-102096818D01*
X112904922Y-102122185D01*
X112910477Y-102148913D01*
X112913020Y-102183895D01*
X112906989Y-102236392D01*
X112889300Y-102285011D01*
X112860760Y-102327886D01*
X112842785Y-102346518D01*
X112822673Y-102362871D01*
X112800671Y-102376724D01*
X112776923Y-102387928D01*
X112751980Y-102396196D01*
X112725707Y-102401519D01*
X112693495Y-102403762D01*
X112572546Y-102403762D01*
X112572546Y-101959582D01*
X112693495Y-101959582D01*
X112745293Y-101965615D01*
G37*
G36*
X114434491Y-102675394D02*
G01*
X110660628Y-102675394D01*
X110660628Y-102130064D01*
X110749517Y-102130064D01*
X110749517Y-102574000D01*
X110942176Y-102574000D01*
X110942176Y-102286868D01*
X111088868Y-102286868D01*
X111236733Y-102574000D01*
X111451764Y-102574000D01*
X111463781Y-102574000D01*
X111664256Y-102574000D01*
X111737040Y-102383588D01*
X112042832Y-102383588D01*
X112114493Y-102574000D01*
X112322832Y-102574000D01*
X112254065Y-102403762D01*
X112379887Y-102403762D01*
X112379887Y-102574000D01*
X112697989Y-102574000D01*
X113213830Y-102574000D01*
X113406489Y-102574000D01*
X113406489Y-102181648D01*
X113507849Y-102181648D01*
X113513942Y-102252313D01*
X113531959Y-102319760D01*
X113561460Y-102382802D01*
X113601825Y-102440003D01*
X113652127Y-102489773D01*
X113680615Y-102511368D01*
X113711090Y-102530529D01*
X113743282Y-102547056D01*
X113777162Y-102560888D01*
X113812233Y-102571794D01*
X113848682Y-102579788D01*
X113885843Y-102584688D01*
X113924080Y-102586497D01*
X113926726Y-102586505D01*
X114001091Y-102580416D01*
X114071875Y-102562445D01*
X114137704Y-102533142D01*
X114197009Y-102493303D01*
X114223709Y-102469762D01*
X114248158Y-102444045D01*
X114270161Y-102416365D01*
X114289640Y-102386798D01*
X114306313Y-102355776D01*
X114320232Y-102323174D01*
X114331123Y-102289613D01*
X114339070Y-102254776D01*
X114343886Y-102219394D01*
X114345600Y-102183027D01*
X114345602Y-102181648D01*
X114339509Y-102110995D01*
X114321492Y-102043552D01*
X114291988Y-101980509D01*
X114251619Y-101923303D01*
X114201312Y-101873528D01*
X114172821Y-101851930D01*
X114142344Y-101832768D01*
X114110151Y-101816240D01*
X114076271Y-101802406D01*
X114041201Y-101791500D01*
X114004752Y-101783506D01*
X113967595Y-101778606D01*
X113929362Y-101776798D01*
X113926726Y-101776791D01*
X113852371Y-101782880D01*
X113781593Y-101800851D01*
X113715766Y-101830154D01*
X113656459Y-101869996D01*
X113629757Y-101893538D01*
X113605305Y-101919257D01*
X113583300Y-101946939D01*
X113563818Y-101976508D01*
X113547143Y-102007531D01*
X113533223Y-102040134D01*
X113522330Y-102073694D01*
X113514382Y-102108529D01*
X113509566Y-102143906D01*
X113507852Y-102180269D01*
X113507849Y-102181648D01*
X113406489Y-102181648D01*
X113406489Y-101789296D01*
X113213830Y-101789296D01*
X113213830Y-102574000D01*
X112697989Y-102574000D01*
X112772489Y-102567916D01*
X112843482Y-102549953D01*
X112909454Y-102520686D01*
X112968696Y-102480985D01*
X112995234Y-102457605D01*
X113019463Y-102432093D01*
X113041121Y-102404747D01*
X113060198Y-102375577D01*
X113076357Y-102345121D01*
X113089712Y-102313161D01*
X113099963Y-102280423D01*
X113107233Y-102246495D01*
X113112371Y-102183895D01*
X113106281Y-102114832D01*
X113088262Y-102048860D01*
X113058719Y-101987132D01*
X113018235Y-101931076D01*
X112967710Y-101882311D01*
X112939063Y-101861175D01*
X112908431Y-101842474D01*
X112876055Y-101826393D01*
X112842001Y-101813014D01*
X112806761Y-101802565D01*
X112770163Y-101795041D01*
X112697989Y-101789296D01*
X112379887Y-101789296D01*
X112379887Y-102403762D01*
X112254065Y-102403762D01*
X112005854Y-101789296D01*
X111785205Y-101789296D01*
X111604644Y-102230106D01*
X111463781Y-102574000D01*
X111451764Y-102574000D01*
X111280404Y-102258877D01*
X111306458Y-102245303D01*
X111330457Y-102229309D01*
X111352147Y-102211123D01*
X111371443Y-102190849D01*
X111387971Y-102168942D01*
X111401827Y-102145305D01*
X111412658Y-102120584D01*
X111420594Y-102094487D01*
X111425408Y-102067726D01*
X111427141Y-102039916D01*
X111427145Y-102038668D01*
X111425603Y-102009974D01*
X111421061Y-101982506D01*
X111413603Y-101956257D01*
X111403374Y-101931479D01*
X111374812Y-101886431D01*
X111336038Y-101848414D01*
X111287807Y-101818694D01*
X111260387Y-101807361D01*
X111231094Y-101798660D01*
X111199914Y-101792703D01*
X111167135Y-101789672D01*
X111150466Y-101789296D01*
X110749517Y-101789296D01*
X110749517Y-102130064D01*
X110660628Y-102130064D01*
X110660628Y-101687902D01*
X114434491Y-101687902D01*
X114434491Y-102675394D01*
G37*
D12*
G36*
X166667Y-166667D02*
G01*
X-166667Y-166667D01*
X-166667Y166667D01*
X166667Y166667D01*
X166667Y-166667D01*
G37*
D10*
G36*
X92270034Y-107929591D02*
G01*
X92268505Y-107948725D01*
X92264051Y-107966147D01*
X92256979Y-107981471D01*
X92247447Y-107994734D01*
X92235782Y-108005637D01*
X92222086Y-108014142D01*
X92206573Y-108020051D01*
X92189410Y-108023193D01*
X92179078Y-108023674D01*
X92161290Y-108022143D01*
X92145065Y-108017680D01*
X92130701Y-108010551D01*
X92118234Y-108000921D01*
X92099656Y-107974811D01*
X92090829Y-107940382D01*
X92090369Y-107929591D01*
X92090369Y-107731364D01*
X92270034Y-107731364D01*
X92270034Y-107929591D01*
G37*
G36*
X90920417Y-107067609D02*
G01*
X90914384Y-107119408D01*
X90896666Y-107167508D01*
X90867990Y-107210140D01*
X90829556Y-107245187D01*
X90807259Y-107259180D01*
X90783181Y-107270553D01*
X90757814Y-107279037D01*
X90731086Y-107284591D01*
X90696104Y-107287135D01*
X90643607Y-107281103D01*
X90594988Y-107263414D01*
X90552113Y-107234874D01*
X90533481Y-107216900D01*
X90517128Y-107196788D01*
X90503275Y-107174785D01*
X90492071Y-107151038D01*
X90483803Y-107126094D01*
X90478480Y-107099822D01*
X90476237Y-107067609D01*
X90476237Y-106946660D01*
X90920417Y-106946660D01*
X90920417Y-107067609D01*
G37*
G36*
X90726684Y-106014457D02*
G01*
X90753791Y-106018962D01*
X90804311Y-106036544D01*
X90848231Y-106064682D01*
X90867154Y-106082309D01*
X90883764Y-106102053D01*
X90897835Y-106123643D01*
X90909275Y-106146992D01*
X90917832Y-106171646D01*
X90923487Y-106197691D01*
X90926230Y-106233569D01*
X90924692Y-106260543D01*
X90920180Y-106286398D01*
X90902518Y-106334788D01*
X90874057Y-106377208D01*
X90835898Y-106411904D01*
X90813645Y-106425793D01*
X90789527Y-106437124D01*
X90763871Y-106445682D01*
X90736710Y-106451375D01*
X90698351Y-106454218D01*
X90670009Y-106452681D01*
X90642893Y-106448176D01*
X90592361Y-106430595D01*
X90548435Y-106402460D01*
X90529511Y-106384835D01*
X90512899Y-106365094D01*
X90498826Y-106343506D01*
X90487386Y-106320160D01*
X90478826Y-106295509D01*
X90473169Y-106269466D01*
X90470424Y-106233569D01*
X90471962Y-106206595D01*
X90476473Y-106180740D01*
X90494136Y-106132351D01*
X90522597Y-106089934D01*
X90560757Y-106055240D01*
X90583012Y-106041351D01*
X90607133Y-106030020D01*
X90632793Y-106021460D01*
X90659959Y-106015766D01*
X90698351Y-106012920D01*
X90726684Y-106014457D01*
G37*
G36*
X92070684Y-105796397D02*
G01*
X92097791Y-105800902D01*
X92148311Y-105818484D01*
X92192231Y-105846622D01*
X92211154Y-105864249D01*
X92227764Y-105883993D01*
X92241835Y-105905583D01*
X92253275Y-105928932D01*
X92261832Y-105953586D01*
X92267487Y-105979631D01*
X92270230Y-106015509D01*
X92268692Y-106042483D01*
X92264180Y-106068338D01*
X92246518Y-106116728D01*
X92218057Y-106159148D01*
X92179898Y-106193844D01*
X92157645Y-106207733D01*
X92133527Y-106219064D01*
X92107871Y-106227622D01*
X92080710Y-106233315D01*
X92042351Y-106236158D01*
X92014009Y-106234621D01*
X91986893Y-106230116D01*
X91936361Y-106212535D01*
X91892435Y-106184400D01*
X91873511Y-106166775D01*
X91856899Y-106147034D01*
X91842826Y-106125446D01*
X91831386Y-106102100D01*
X91822826Y-106077449D01*
X91817169Y-106051406D01*
X91814424Y-106015509D01*
X91815962Y-105988535D01*
X91820473Y-105962680D01*
X91838136Y-105914291D01*
X91866597Y-105871874D01*
X91904757Y-105837180D01*
X91927012Y-105823291D01*
X91951133Y-105811960D01*
X91976793Y-105803400D01*
X92003959Y-105797706D01*
X92042351Y-105794860D01*
X92070684Y-105796397D01*
G37*
G36*
X92536097Y-110594265D02*
G01*
X90204605Y-110594265D01*
X90204605Y-110505376D01*
X91650000Y-110505376D01*
X91816866Y-110505376D01*
X91816866Y-110075314D01*
X91965757Y-110075314D01*
X91965757Y-110356437D01*
X92127006Y-110356437D01*
X92127006Y-110075314D01*
X92267787Y-110075314D01*
X92267787Y-110500882D01*
X92434703Y-110500882D01*
X92434703Y-109882655D01*
X91650000Y-109882655D01*
X91650000Y-110505376D01*
X90204605Y-110505376D01*
X90204605Y-109744120D01*
X90306000Y-109744120D01*
X90472866Y-109744120D01*
X90472866Y-109314057D01*
X90621757Y-109314057D01*
X90621757Y-109595181D01*
X90783006Y-109595181D01*
X90783006Y-109314057D01*
X90923787Y-109314057D01*
X90923787Y-109739626D01*
X91090703Y-109739626D01*
X91090703Y-109348740D01*
X91650000Y-109348740D01*
X91650000Y-109541350D01*
X92264417Y-109541350D01*
X92264417Y-109797854D01*
X92434703Y-109797854D01*
X92434703Y-109092236D01*
X92264417Y-109092236D01*
X92264417Y-109348740D01*
X91650000Y-109348740D01*
X91090703Y-109348740D01*
X91090703Y-109121399D01*
X90306000Y-109121399D01*
X90306000Y-109744120D01*
X90204605Y-109744120D01*
X90204605Y-109014518D01*
X90306000Y-109014518D01*
X90476237Y-109014518D01*
X90476237Y-108661343D01*
X91637494Y-108661343D01*
X91639043Y-108700203D01*
X91643630Y-108737284D01*
X91651037Y-108771985D01*
X91661225Y-108804783D01*
X91673913Y-108835175D01*
X91689144Y-108863548D01*
X91706635Y-108889547D01*
X91726458Y-108913406D01*
X91748404Y-108934930D01*
X91772504Y-108954181D01*
X91826890Y-108985557D01*
X91889414Y-109006980D01*
X91959939Y-109017619D01*
X91990816Y-109018621D01*
X92434703Y-109018621D01*
X92434703Y-108825963D01*
X91990816Y-108825963D01*
X91962836Y-108824420D01*
X91936863Y-108819875D01*
X91913639Y-108812685D01*
X91892567Y-108802882D01*
X91874213Y-108790919D01*
X91858136Y-108776685D01*
X91844642Y-108760553D01*
X91833576Y-108742422D01*
X91819170Y-108700562D01*
X91815547Y-108662466D01*
X91817090Y-108637200D01*
X91821639Y-108613640D01*
X91828895Y-108592327D01*
X91838806Y-108572880D01*
X91851102Y-108555602D01*
X91865772Y-108540366D01*
X91901881Y-108516416D01*
X91946942Y-108501839D01*
X91990816Y-108497847D01*
X92434703Y-108497847D01*
X92434703Y-108305188D01*
X91990816Y-108305188D01*
X91951911Y-108306737D01*
X91914887Y-108311329D01*
X91880445Y-108318716D01*
X91847965Y-108328877D01*
X91817993Y-108341503D01*
X91790061Y-108356663D01*
X91764516Y-108374071D01*
X91741102Y-108393809D01*
X91701083Y-108439785D01*
X91670223Y-108494383D01*
X91649067Y-108557605D01*
X91638502Y-108629501D01*
X91637494Y-108661343D01*
X90476237Y-108661343D01*
X90476237Y-108601259D01*
X91090703Y-108601259D01*
X91090703Y-108408600D01*
X90306000Y-108408600D01*
X90306000Y-109014518D01*
X90204605Y-109014518D01*
X90204605Y-107932913D01*
X90293494Y-107932913D01*
X90295043Y-107971774D01*
X90299630Y-108008854D01*
X90307037Y-108043555D01*
X90317225Y-108076353D01*
X90329913Y-108106745D01*
X90345144Y-108135119D01*
X90362635Y-108161117D01*
X90382458Y-108184976D01*
X90404404Y-108206500D01*
X90428504Y-108225751D01*
X90482890Y-108257127D01*
X90545414Y-108278551D01*
X90615939Y-108289189D01*
X90646816Y-108290191D01*
X91090703Y-108290191D01*
X91090703Y-108097533D01*
X90646816Y-108097533D01*
X90618836Y-108095990D01*
X90592863Y-108091445D01*
X90569639Y-108084255D01*
X90548567Y-108074452D01*
X90530213Y-108062489D01*
X90514136Y-108048255D01*
X90500642Y-108032123D01*
X90489576Y-108013992D01*
X90475170Y-107972132D01*
X90471547Y-107934036D01*
X90473090Y-107908770D01*
X90477639Y-107885210D01*
X90484895Y-107863897D01*
X90494806Y-107844450D01*
X90507102Y-107827173D01*
X90521772Y-107811937D01*
X90557881Y-107787986D01*
X90602942Y-107773410D01*
X90646816Y-107769417D01*
X91090703Y-107769417D01*
X91090703Y-107731364D01*
X91650000Y-107731364D01*
X91931367Y-107731364D01*
X91931367Y-107929591D01*
X91931367Y-107952013D01*
X91932906Y-107983404D01*
X91937427Y-108013518D01*
X91944872Y-108042478D01*
X91955061Y-108069815D01*
X91967924Y-108095506D01*
X91983261Y-108119229D01*
X92000904Y-108140804D01*
X92020713Y-108160086D01*
X92042361Y-108176794D01*
X92065847Y-108190925D01*
X92090688Y-108202191D01*
X92117033Y-108210636D01*
X92144324Y-108216049D01*
X92172801Y-108218427D01*
X92180202Y-108218531D01*
X92209702Y-108216989D01*
X92237973Y-108212454D01*
X92265059Y-108204998D01*
X92290636Y-108194777D01*
X92337058Y-108166320D01*
X92375971Y-108127974D01*
X92392203Y-108105393D01*
X92406029Y-108080786D01*
X92417321Y-108054255D01*
X92425917Y-108025979D01*
X92431667Y-107996163D01*
X92434451Y-107964895D01*
X92434703Y-107952013D01*
X92434703Y-107538705D01*
X91650000Y-107538705D01*
X91650000Y-107731364D01*
X91090703Y-107731364D01*
X91090703Y-107576758D01*
X90646816Y-107576758D01*
X90607911Y-107578307D01*
X90570887Y-107582899D01*
X90536445Y-107590287D01*
X90503965Y-107600447D01*
X90473993Y-107613073D01*
X90446061Y-107628233D01*
X90420516Y-107645641D01*
X90397102Y-107665379D01*
X90357083Y-107711355D01*
X90326223Y-107765953D01*
X90305067Y-107829175D01*
X90294502Y-107901071D01*
X90293494Y-107932913D01*
X90204605Y-107932913D01*
X90204605Y-107067609D01*
X90306000Y-107067609D01*
X90306000Y-107072103D01*
X90312083Y-107146603D01*
X90330046Y-107217596D01*
X90359313Y-107283569D01*
X90399014Y-107342811D01*
X90422394Y-107369348D01*
X90447906Y-107393578D01*
X90475252Y-107415236D01*
X90504422Y-107434313D01*
X90534878Y-107450472D01*
X90566838Y-107463826D01*
X90599576Y-107474078D01*
X90633504Y-107481347D01*
X90696104Y-107486486D01*
X90765167Y-107480396D01*
X90831139Y-107462376D01*
X90892867Y-107432834D01*
X90948923Y-107392350D01*
X90997688Y-107341825D01*
X91018824Y-107313178D01*
X91037525Y-107282545D01*
X91053606Y-107250169D01*
X91066985Y-107216115D01*
X91077434Y-107180875D01*
X91084958Y-107144278D01*
X91090703Y-107072103D01*
X91090703Y-106754002D01*
X90306000Y-106754002D01*
X90306000Y-107067609D01*
X90204605Y-107067609D01*
X90204605Y-106712920D01*
X91650000Y-106712920D01*
X92186943Y-106712920D01*
X91706029Y-106970498D01*
X92184696Y-107228126D01*
X91650000Y-107228126D01*
X91650000Y-107409549D01*
X92434703Y-107409549D01*
X92434703Y-107166528D01*
X92064724Y-106972745D01*
X92434703Y-106779012D01*
X92434703Y-106535942D01*
X91650000Y-106535942D01*
X91650000Y-106712920D01*
X90204605Y-106712920D01*
X90204605Y-106233569D01*
X90293494Y-106233569D01*
X90299583Y-106307934D01*
X90317554Y-106378718D01*
X90346857Y-106444547D01*
X90386696Y-106503852D01*
X90410237Y-106530552D01*
X90435954Y-106555001D01*
X90463634Y-106577004D01*
X90493201Y-106596483D01*
X90524223Y-106613156D01*
X90556825Y-106627075D01*
X90590386Y-106637966D01*
X90625223Y-106645913D01*
X90660605Y-106650729D01*
X90696972Y-106652443D01*
X90698351Y-106652445D01*
X90769004Y-106646353D01*
X90836447Y-106628335D01*
X90899490Y-106598831D01*
X90956696Y-106558462D01*
X91006471Y-106508155D01*
X91028069Y-106479664D01*
X91047231Y-106449187D01*
X91063759Y-106416994D01*
X91077593Y-106383114D01*
X91088499Y-106348044D01*
X91096493Y-106311595D01*
X91101393Y-106274438D01*
X91103201Y-106236205D01*
X91103208Y-106233569D01*
X91097119Y-106159214D01*
X91079148Y-106088436D01*
X91049845Y-106022609D01*
X91045075Y-106015509D01*
X91637494Y-106015509D01*
X91643583Y-106089874D01*
X91661554Y-106160658D01*
X91690857Y-106226487D01*
X91730696Y-106285792D01*
X91754237Y-106312492D01*
X91779954Y-106336941D01*
X91807634Y-106358944D01*
X91837201Y-106378423D01*
X91868223Y-106395096D01*
X91900825Y-106409015D01*
X91934386Y-106419906D01*
X91969223Y-106427853D01*
X92004605Y-106432669D01*
X92040972Y-106434383D01*
X92042351Y-106434385D01*
X92113004Y-106428293D01*
X92180447Y-106410275D01*
X92243490Y-106380771D01*
X92300696Y-106340402D01*
X92350471Y-106290095D01*
X92372069Y-106261604D01*
X92391231Y-106231127D01*
X92407759Y-106198934D01*
X92421593Y-106165054D01*
X92432499Y-106129984D01*
X92440493Y-106093535D01*
X92445393Y-106056378D01*
X92447201Y-106018145D01*
X92447208Y-106015509D01*
X92441119Y-105941154D01*
X92423148Y-105870376D01*
X92393845Y-105804549D01*
X92354003Y-105745242D01*
X92330461Y-105718540D01*
X92304742Y-105694088D01*
X92277060Y-105672083D01*
X92247491Y-105652601D01*
X92216468Y-105635926D01*
X92183865Y-105622006D01*
X92150305Y-105611113D01*
X92115470Y-105603165D01*
X92080093Y-105598349D01*
X92043730Y-105596635D01*
X92042351Y-105596632D01*
X91971686Y-105602725D01*
X91904239Y-105620742D01*
X91841197Y-105650243D01*
X91783996Y-105690608D01*
X91734226Y-105740910D01*
X91712631Y-105769398D01*
X91693470Y-105799873D01*
X91676943Y-105832065D01*
X91663111Y-105865945D01*
X91652205Y-105901016D01*
X91644211Y-105937465D01*
X91639311Y-105974626D01*
X91637502Y-106012863D01*
X91637494Y-106015509D01*
X91045075Y-106015509D01*
X91010003Y-105963302D01*
X90986461Y-105936600D01*
X90960742Y-105912148D01*
X90933060Y-105890143D01*
X90903491Y-105870661D01*
X90872468Y-105853986D01*
X90839865Y-105840066D01*
X90806305Y-105829173D01*
X90771470Y-105821225D01*
X90736093Y-105816409D01*
X90699730Y-105814695D01*
X90698351Y-105814692D01*
X90627686Y-105820785D01*
X90560239Y-105838802D01*
X90497197Y-105868303D01*
X90439996Y-105908668D01*
X90390226Y-105958970D01*
X90368631Y-105987458D01*
X90349470Y-106017933D01*
X90332943Y-106050125D01*
X90319111Y-106084005D01*
X90308205Y-106119076D01*
X90300211Y-106155525D01*
X90295311Y-106192686D01*
X90293502Y-106230923D01*
X90293494Y-106233569D01*
X90204605Y-106233569D01*
X90204605Y-105016898D01*
X90306000Y-105016898D01*
X90842943Y-105016898D01*
X90362029Y-105274476D01*
X90840696Y-105532103D01*
X90306000Y-105532103D01*
X90306000Y-105713527D01*
X91090703Y-105713527D01*
X91090703Y-105470505D01*
X90720724Y-105276723D01*
X90804122Y-105233053D01*
X91637494Y-105233053D01*
X91643570Y-105303539D01*
X91662020Y-105375093D01*
X91692362Y-105443524D01*
X91711385Y-105474965D01*
X91732816Y-105504235D01*
X91755727Y-105530195D01*
X91780609Y-105553483D01*
X91788681Y-105560094D01*
X91913440Y-105433527D01*
X91889350Y-105412083D01*
X91868657Y-105389377D01*
X91852054Y-105366508D01*
X91838553Y-105342511D01*
X91828364Y-105318000D01*
X91821134Y-105292437D01*
X91815547Y-105239794D01*
X91817084Y-105211653D01*
X91821590Y-105184703D01*
X91839202Y-105134332D01*
X91867466Y-105090303D01*
X91885230Y-105071213D01*
X91905137Y-105054399D01*
X91926973Y-105040053D01*
X91950598Y-105028313D01*
X91975598Y-105019417D01*
X92002017Y-105013408D01*
X92041765Y-105010157D01*
X92070009Y-105011693D01*
X92097039Y-105016199D01*
X92147470Y-105033791D01*
X92191407Y-105061978D01*
X92210387Y-105079662D01*
X92227071Y-105099472D01*
X92241248Y-105121165D01*
X92252804Y-105144631D01*
X92261495Y-105169432D01*
X92267290Y-105195635D01*
X92270230Y-105233053D01*
X92268667Y-105261705D01*
X92263976Y-105289328D01*
X92256387Y-105315261D01*
X92245819Y-105340170D01*
X92215792Y-105386772D01*
X92172836Y-105429887D01*
X92165547Y-105435774D01*
X92293726Y-105565662D01*
X92339792Y-105522469D01*
X92380706Y-105467194D01*
X92413816Y-105401615D01*
X92426594Y-105365940D01*
X92436443Y-105329120D01*
X92443152Y-105291871D01*
X92446680Y-105254167D01*
X92447208Y-105233053D01*
X92441113Y-105157581D01*
X92423160Y-105086067D01*
X92393957Y-105019870D01*
X92354332Y-104960485D01*
X92330950Y-104933829D01*
X92305387Y-104909427D01*
X92277882Y-104887495D01*
X92248471Y-104868073D01*
X92217575Y-104851440D01*
X92185059Y-104837539D01*
X92151494Y-104826628D01*
X92116594Y-104818637D01*
X92081006Y-104813744D01*
X92044353Y-104811937D01*
X92041765Y-104811929D01*
X91970483Y-104818027D01*
X91902861Y-104836012D01*
X91839995Y-104865390D01*
X91783183Y-104905536D01*
X91733858Y-104955589D01*
X91712451Y-104983989D01*
X91693457Y-105014403D01*
X91677035Y-105046631D01*
X91663276Y-105080596D01*
X91652379Y-105115910D01*
X91644366Y-105152674D01*
X91639402Y-105190346D01*
X91637510Y-105229181D01*
X91637494Y-105233053D01*
X90804122Y-105233053D01*
X91090703Y-105082990D01*
X91090703Y-104839919D01*
X90306000Y-104839919D01*
X90306000Y-105016898D01*
X90204605Y-105016898D01*
X90204605Y-104723040D01*
X92536097Y-104723040D01*
X92536097Y-110594265D01*
G37*
D12*
G36*
X90638640Y-101955494D02*
G01*
X90657395Y-101959950D01*
X90673724Y-101966965D01*
X90687803Y-101976411D01*
X90699150Y-101987768D01*
X90707965Y-102001077D01*
X90713969Y-102015878D01*
X90717155Y-102032228D01*
X90717641Y-102042039D01*
X90716109Y-102059226D01*
X90711638Y-102074950D01*
X90694738Y-102101228D01*
X90668008Y-102119919D01*
X90632169Y-102129357D01*
X90617990Y-102130064D01*
X90427578Y-102130064D01*
X90427578Y-101953965D01*
X90617990Y-101953965D01*
X90638640Y-101955494D01*
G37*
G36*
X91471081Y-102230106D02*
G01*
X91280718Y-102230106D01*
X91376999Y-101979512D01*
X91471081Y-102230106D01*
G37*
G36*
X92230695Y-101965615D02*
G01*
X92278796Y-101983333D01*
X92321428Y-102012009D01*
X92356474Y-102050443D01*
X92370467Y-102072740D01*
X92381840Y-102096818D01*
X92390324Y-102122185D01*
X92395879Y-102148913D01*
X92398422Y-102183895D01*
X92392391Y-102236392D01*
X92374702Y-102285011D01*
X92346162Y-102327886D01*
X92328187Y-102346518D01*
X92308075Y-102362871D01*
X92286073Y-102376724D01*
X92262325Y-102387928D01*
X92237382Y-102396196D01*
X92211109Y-102401519D01*
X92178897Y-102403762D01*
X92057948Y-102403762D01*
X92057948Y-101959582D01*
X92178897Y-101959582D01*
X92230695Y-101965615D01*
G37*
G36*
X93103796Y-102230106D02*
G01*
X92913433Y-102230106D01*
X93009713Y-101979512D01*
X93103796Y-102230106D01*
G37*
G36*
X93901725Y-101955494D02*
G01*
X93920479Y-101959950D01*
X93936809Y-101966965D01*
X93950888Y-101976411D01*
X93962235Y-101987768D01*
X93971050Y-102001077D01*
X93977053Y-102015878D01*
X93980240Y-102032228D01*
X93980725Y-102042039D01*
X93979193Y-102059226D01*
X93974723Y-102074950D01*
X93957822Y-102101228D01*
X93931092Y-102119919D01*
X93895253Y-102129357D01*
X93881074Y-102130064D01*
X93690662Y-102130064D01*
X93690662Y-101953965D01*
X93881074Y-101953965D01*
X93901725Y-101955494D01*
G37*
G36*
X94289140Y-102662889D02*
G01*
X90146030Y-102662889D01*
X90146030Y-102130064D01*
X90234919Y-102130064D01*
X90234919Y-102574000D01*
X90427578Y-102574000D01*
X90427578Y-102286868D01*
X90574270Y-102286868D01*
X90722135Y-102574000D01*
X90937166Y-102574000D01*
X90949183Y-102574000D01*
X91149658Y-102574000D01*
X91222442Y-102383588D01*
X91528234Y-102383588D01*
X91599895Y-102574000D01*
X91808234Y-102574000D01*
X91739467Y-102403762D01*
X91865289Y-102403762D01*
X91865289Y-102574000D01*
X92183391Y-102574000D01*
X92581898Y-102574000D01*
X92782372Y-102574000D01*
X92855157Y-102383588D01*
X93160949Y-102383588D01*
X93232609Y-102574000D01*
X93440949Y-102574000D01*
X93261622Y-102130064D01*
X93498004Y-102130064D01*
X93498004Y-102574000D01*
X93690662Y-102574000D01*
X93690662Y-102286868D01*
X93837355Y-102286868D01*
X93985219Y-102574000D01*
X94200251Y-102574000D01*
X94028890Y-102258877D01*
X94054945Y-102245303D01*
X94078943Y-102229309D01*
X94100633Y-102211123D01*
X94119929Y-102190849D01*
X94136458Y-102168942D01*
X94150314Y-102145305D01*
X94161144Y-102120584D01*
X94169081Y-102094487D01*
X94173895Y-102067726D01*
X94175628Y-102039916D01*
X94175631Y-102038668D01*
X94174089Y-102009974D01*
X94169547Y-101982506D01*
X94162090Y-101956257D01*
X94151860Y-101931479D01*
X94123298Y-101886431D01*
X94084525Y-101848414D01*
X94036293Y-101818694D01*
X94008874Y-101807361D01*
X93979581Y-101798660D01*
X93948400Y-101792703D01*
X93915621Y-101789672D01*
X93898953Y-101789296D01*
X93498004Y-101789296D01*
X93498004Y-102130064D01*
X93261622Y-102130064D01*
X93123970Y-101789296D01*
X92903321Y-101789296D01*
X92722761Y-102230106D01*
X92581898Y-102574000D01*
X92183391Y-102574000D01*
X92257891Y-102567916D01*
X92328884Y-102549953D01*
X92394856Y-102520686D01*
X92454098Y-102480985D01*
X92480636Y-102457605D01*
X92504865Y-102432093D01*
X92526523Y-102404747D01*
X92545600Y-102375577D01*
X92561759Y-102345121D01*
X92575114Y-102313161D01*
X92585365Y-102280423D01*
X92592635Y-102246495D01*
X92597773Y-102183895D01*
X92591683Y-102114832D01*
X92573664Y-102048860D01*
X92544121Y-101987132D01*
X92503637Y-101931076D01*
X92453112Y-101882311D01*
X92424465Y-101861175D01*
X92393833Y-101842474D01*
X92361457Y-101826393D01*
X92327403Y-101813014D01*
X92292163Y-101802565D01*
X92255565Y-101795041D01*
X92183391Y-101789296D01*
X91865289Y-101789296D01*
X91865289Y-102403762D01*
X91739467Y-102403762D01*
X91491256Y-101789296D01*
X91270607Y-101789296D01*
X91090046Y-102230106D01*
X90949183Y-102574000D01*
X90937166Y-102574000D01*
X90765806Y-102258877D01*
X90791860Y-102245303D01*
X90815859Y-102229309D01*
X90837549Y-102211123D01*
X90856845Y-102190849D01*
X90873373Y-102168942D01*
X90887229Y-102145305D01*
X90898060Y-102120584D01*
X90905996Y-102094487D01*
X90910810Y-102067726D01*
X90912543Y-102039916D01*
X90912547Y-102038668D01*
X90911005Y-102009974D01*
X90906463Y-101982506D01*
X90899005Y-101956257D01*
X90888776Y-101931479D01*
X90860214Y-101886431D01*
X90821440Y-101848414D01*
X90773209Y-101818694D01*
X90745789Y-101807361D01*
X90716496Y-101798660D01*
X90685316Y-101792703D01*
X90652537Y-101789672D01*
X90635868Y-101789296D01*
X90234919Y-101789296D01*
X90234919Y-102130064D01*
X90146030Y-102130064D01*
X90146030Y-101700407D01*
X94289140Y-101700407D01*
X94289140Y-102662889D01*
G37*
G36*
X93176272Y-85025394D02*
G01*
X90146030Y-85025394D01*
X90146030Y-84924000D01*
X90234919Y-84924000D01*
X90427578Y-84924000D01*
X90964912Y-84924000D01*
X91141891Y-84924000D01*
X91141891Y-84387056D01*
X91399469Y-84867970D01*
X91657096Y-84389303D01*
X91657096Y-84924000D01*
X91838520Y-84924000D01*
X91838520Y-84583183D01*
X91956489Y-84583183D01*
X91958039Y-84622088D01*
X91962631Y-84659112D01*
X91970018Y-84693554D01*
X91980178Y-84726034D01*
X91992805Y-84756006D01*
X92007964Y-84783938D01*
X92025372Y-84809483D01*
X92045110Y-84832897D01*
X92091086Y-84872916D01*
X92145685Y-84903776D01*
X92208906Y-84924932D01*
X92280803Y-84935497D01*
X92312644Y-84936505D01*
X92351505Y-84934956D01*
X92388585Y-84930369D01*
X92423287Y-84922962D01*
X92456084Y-84912774D01*
X92486477Y-84900086D01*
X92514850Y-84884855D01*
X92540848Y-84867364D01*
X92564708Y-84847541D01*
X92586232Y-84825595D01*
X92605482Y-84801495D01*
X92636859Y-84747109D01*
X92658282Y-84684585D01*
X92668920Y-84614060D01*
X92669923Y-84583183D01*
X92669923Y-84231229D01*
X92743538Y-84231229D01*
X92743538Y-84388180D01*
X92905959Y-84323162D01*
X92905959Y-84924000D01*
X93087383Y-84924000D01*
X93087383Y-84139296D01*
X92973126Y-84139296D01*
X92743538Y-84231229D01*
X92669923Y-84231229D01*
X92669923Y-84139296D01*
X92477264Y-84139296D01*
X92477264Y-84583183D01*
X92475721Y-84611163D01*
X92471176Y-84637136D01*
X92463987Y-84660360D01*
X92454184Y-84681432D01*
X92442220Y-84699786D01*
X92427986Y-84715863D01*
X92411854Y-84729357D01*
X92393723Y-84740423D01*
X92351863Y-84754829D01*
X92313768Y-84758452D01*
X92288501Y-84756909D01*
X92264941Y-84752360D01*
X92243629Y-84745104D01*
X92224182Y-84735193D01*
X92206904Y-84722897D01*
X92191668Y-84708227D01*
X92167718Y-84672118D01*
X92153141Y-84627057D01*
X92149148Y-84583183D01*
X92149148Y-84139296D01*
X91956489Y-84139296D01*
X91956489Y-84583183D01*
X91838520Y-84583183D01*
X91838520Y-84139296D01*
X91595498Y-84139296D01*
X91401716Y-84509275D01*
X91207983Y-84139296D01*
X90964912Y-84139296D01*
X90964912Y-84924000D01*
X90427578Y-84924000D01*
X90427578Y-84614495D01*
X90714270Y-84614495D01*
X90714270Y-84453246D01*
X90427578Y-84453246D01*
X90427578Y-84306212D01*
X90857641Y-84306212D01*
X90857641Y-84139296D01*
X90234919Y-84139296D01*
X90234919Y-84924000D01*
X90146030Y-84924000D01*
X90146030Y-84050407D01*
X93176272Y-84050407D01*
X93176272Y-85025394D01*
G37*
G36*
X113945126Y-85025394D02*
G01*
X110660628Y-85025394D01*
X110660628Y-84924000D01*
X110749517Y-84924000D01*
X110942176Y-84924000D01*
X111479510Y-84924000D01*
X111656489Y-84924000D01*
X111656489Y-84387056D01*
X111914067Y-84867970D01*
X112171694Y-84389303D01*
X112171694Y-84924000D01*
X112353118Y-84924000D01*
X112353118Y-84583183D01*
X112471087Y-84583183D01*
X112472637Y-84622088D01*
X112477229Y-84659112D01*
X112484616Y-84693554D01*
X112494776Y-84726034D01*
X112507403Y-84756006D01*
X112522562Y-84783938D01*
X112539970Y-84809483D01*
X112559708Y-84832897D01*
X112605684Y-84872916D01*
X112660283Y-84903776D01*
X112723504Y-84924932D01*
X112795401Y-84935497D01*
X112827242Y-84936505D01*
X112866103Y-84934956D01*
X112903183Y-84930369D01*
X112937885Y-84922962D01*
X112970682Y-84912774D01*
X113001075Y-84900086D01*
X113029448Y-84884855D01*
X113055446Y-84867364D01*
X113079306Y-84847541D01*
X113100830Y-84825595D01*
X113120080Y-84801495D01*
X113151457Y-84747109D01*
X113172880Y-84684585D01*
X113183518Y-84614060D01*
X113184521Y-84583183D01*
X113184521Y-84255605D01*
X113267124Y-84255605D01*
X113363404Y-84373378D01*
X113397309Y-84342727D01*
X113429497Y-84318450D01*
X113455773Y-84302692D01*
X113481858Y-84290900D01*
X113506469Y-84283253D01*
X113531698Y-84278661D01*
X113561681Y-84276903D01*
X113584097Y-84278424D01*
X113604828Y-84282825D01*
X113623684Y-84289913D01*
X113640197Y-84299416D01*
X113653730Y-84310754D01*
X113664445Y-84323911D01*
X113671742Y-84337868D01*
X113675985Y-84353054D01*
X113677012Y-84365514D01*
X113675415Y-84385461D01*
X113670490Y-84404940D01*
X113651084Y-84441604D01*
X113624402Y-84472101D01*
X113292867Y-84800803D01*
X113292867Y-84924000D01*
X113856237Y-84924000D01*
X113856237Y-84777307D01*
X113516886Y-84778431D01*
X113743104Y-84559638D01*
X113772176Y-84529223D01*
X113796137Y-84499223D01*
X113813228Y-84472710D01*
X113826538Y-84446020D01*
X113835697Y-84420565D01*
X113841704Y-84394550D01*
X113845002Y-84354327D01*
X113843457Y-84326863D01*
X113838891Y-84300782D01*
X113831480Y-84276357D01*
X113821304Y-84253464D01*
X113792970Y-84212499D01*
X113754145Y-84178291D01*
X113704838Y-84151697D01*
X113645141Y-84134025D01*
X113575513Y-84126866D01*
X113567249Y-84126791D01*
X113531917Y-84128351D01*
X113497111Y-84133019D01*
X113429410Y-84151546D01*
X113363799Y-84182527D01*
X113300105Y-84226594D01*
X113267124Y-84255605D01*
X113184521Y-84255605D01*
X113184521Y-84139296D01*
X112991862Y-84139296D01*
X112991862Y-84583183D01*
X112990319Y-84611163D01*
X112985774Y-84637136D01*
X112978585Y-84660360D01*
X112968782Y-84681432D01*
X112956818Y-84699786D01*
X112942584Y-84715863D01*
X112926452Y-84729357D01*
X112908321Y-84740423D01*
X112866461Y-84754829D01*
X112828366Y-84758452D01*
X112803099Y-84756909D01*
X112779539Y-84752360D01*
X112758227Y-84745104D01*
X112738780Y-84735193D01*
X112721502Y-84722897D01*
X112706266Y-84708227D01*
X112682316Y-84672118D01*
X112667739Y-84627057D01*
X112663746Y-84583183D01*
X112663746Y-84139296D01*
X112471087Y-84139296D01*
X112471087Y-84583183D01*
X112353118Y-84583183D01*
X112353118Y-84139296D01*
X112110096Y-84139296D01*
X111916314Y-84509275D01*
X111722581Y-84139296D01*
X111479510Y-84139296D01*
X111479510Y-84924000D01*
X110942176Y-84924000D01*
X110942176Y-84614495D01*
X111228868Y-84614495D01*
X111228868Y-84453246D01*
X110942176Y-84453246D01*
X110942176Y-84306212D01*
X111372239Y-84306212D01*
X111372239Y-84139296D01*
X110749517Y-84139296D01*
X110749517Y-84924000D01*
X110660628Y-84924000D01*
X110660628Y-84037902D01*
X113945126Y-84037902D01*
X113945126Y-85025394D01*
G37*
D14*
X86714700Y-71548178D02*
X86714700Y-70405321D01*
X86714700Y-82548178D02*
X86714700Y-81405321D01*
X87286128Y-81976749D02*
X86143271Y-81976749D01*
D15*
%TO.C,U12*%
X100031474Y-124250000D02*
G75*
G02*
X99831474Y-124250000I-100000J0D01*
G01*
X99831474Y-124250000D02*
G75*
G02*
X100031474Y-124250000I100000J0D01*
G01*
D16*
X119251474Y-123550000D02*
X119251474Y-104450000D01*
X119251474Y-104450000D02*
X95851474Y-104450000D01*
X96851474Y-123550000D02*
X119251474Y-123550000D01*
X95851474Y-122550000D02*
X96851474Y-123550000D01*
X95851474Y-104450000D02*
X95851474Y-122550000D01*
D17*
%TO.C,J3*%
X140990000Y-100260000D02*
X154010000Y-100260000D01*
X154010000Y-100260000D02*
X154010000Y-97450000D01*
X140990000Y-99450000D02*
X140990000Y-100260000D01*
X137890000Y-97750000D02*
X136610000Y-97750000D01*
X137890000Y-97150000D02*
X136610000Y-97150000D01*
X140000000Y-95450000D02*
X139700000Y-94850000D01*
X140990000Y-95450000D02*
X140990000Y-94640000D01*
X139700000Y-94850000D02*
X140300000Y-94850000D01*
X140300000Y-94850000D02*
X140000000Y-95450000D01*
X140990000Y-94640000D02*
X154010000Y-94640000D01*
X154010000Y-94640000D02*
X154010000Y-97450000D01*
%TO.C,R57*%
X139070000Y-89006359D02*
X139070000Y-89313641D01*
X139830000Y-89006359D02*
X139830000Y-89313641D01*
%TO.C,R56*%
X132103641Y-83240000D02*
X131796359Y-83240000D01*
X132103641Y-84000000D02*
X131796359Y-84000000D01*
%TO.C,R59*%
X138362742Y-90712500D02*
X138837258Y-90712500D01*
X138362742Y-91757500D02*
X138837258Y-91757500D01*
%TO.C,D12*%
X133550000Y-85960000D02*
X133550000Y-83300000D01*
X133550000Y-85960000D02*
X135250000Y-85960000D01*
X135250000Y-85960000D02*
X135250000Y-83300000D01*
%TO.C,C37*%
X133270000Y-91709420D02*
X133270000Y-91990580D01*
X134290000Y-91709420D02*
X134290000Y-91990580D01*
%TO.C,R55*%
X131127500Y-87912742D02*
X131127500Y-88387258D01*
X132172500Y-87912742D02*
X132172500Y-88387258D01*
%TO.C,R53*%
X139070000Y-86981359D02*
X139070000Y-87288641D01*
X139830000Y-86981359D02*
X139830000Y-87288641D01*
%TO.C,R54*%
X137927500Y-83992742D02*
X137927500Y-84467258D01*
X138972500Y-83992742D02*
X138972500Y-84467258D01*
%TO.C,U14*%
X133500000Y-87040000D02*
X133940000Y-87040000D01*
X136000000Y-87040000D02*
X135560000Y-87040000D01*
X136000000Y-89260000D02*
X135560000Y-89260000D01*
X133940000Y-89540000D02*
X133660000Y-89260000D01*
X133940000Y-89260000D01*
X133940000Y-89540000D01*
G36*
X133940000Y-89540000D02*
G01*
X133660000Y-89260000D01*
X133940000Y-89260000D01*
X133940000Y-89540000D01*
G37*
%TO.C,C31*%
X135210000Y-91709420D02*
X135210000Y-91990580D01*
X136230000Y-91709420D02*
X136230000Y-91990580D01*
%TO.C,R58*%
X137327500Y-88847258D02*
X137327500Y-88372742D01*
X138372500Y-88847258D02*
X138372500Y-88372742D01*
%TO.C,C32*%
X131140000Y-91709420D02*
X131140000Y-91990580D01*
X132160000Y-91709420D02*
X132160000Y-91990580D01*
%TO.C,TP6*%
X131250000Y-84750000D02*
X132650000Y-84750000D01*
X131250000Y-86150000D02*
X131250000Y-84750000D01*
X132650000Y-84750000D02*
X132650000Y-86150000D01*
X132650000Y-86150000D02*
X131250000Y-86150000D01*
%TO.C,R60*%
X138203641Y-92480000D02*
X137896359Y-92480000D01*
X138203641Y-93240000D02*
X137896359Y-93240000D01*
%TO.C,C30*%
X136140000Y-84370580D02*
X136140000Y-84089420D01*
X137160000Y-84370580D02*
X137160000Y-84089420D01*
%TO.C,J13*%
X154010000Y-101390000D02*
X154010000Y-104200000D01*
X140990000Y-101390000D02*
X154010000Y-101390000D01*
X140300000Y-101600000D02*
X140000000Y-102200000D01*
X139700000Y-101600000D02*
X140300000Y-101600000D01*
X140990000Y-102200000D02*
X140990000Y-101390000D01*
X140000000Y-102200000D02*
X139700000Y-101600000D01*
X137890000Y-103900000D02*
X136610000Y-103900000D01*
X137890000Y-104500000D02*
X136610000Y-104500000D01*
X140990000Y-106200000D02*
X140990000Y-107010000D01*
X154010000Y-107010000D02*
X154010000Y-104200000D01*
X140990000Y-107010000D02*
X154010000Y-107010000D01*
%TO.C,J10*%
X154010000Y-108009758D02*
X154010000Y-112919758D01*
X140990000Y-108009758D02*
X154010000Y-108009758D01*
X140300000Y-108219758D02*
X140000000Y-108819758D01*
X139700000Y-108219758D02*
X140300000Y-108219758D01*
X140990000Y-108819758D02*
X140990000Y-108009758D01*
X140000000Y-108819758D02*
X139700000Y-108219758D01*
X137890000Y-110519758D02*
X136610000Y-110519758D01*
X137890000Y-111119758D02*
X136610000Y-111119758D01*
X141000000Y-112429758D02*
X141000000Y-113409758D01*
X137890000Y-114719758D02*
X136610000Y-114719758D01*
X137890000Y-115319758D02*
X136610000Y-115319758D01*
X140990000Y-117019758D02*
X140990000Y-117829758D01*
X154010000Y-117829758D02*
X154010000Y-112919758D01*
X140990000Y-117829758D02*
X154010000Y-117829758D01*
%TO.C,J4*%
X140990000Y-81610000D02*
X154010000Y-81610000D01*
X154010000Y-81610000D02*
X154010000Y-78800000D01*
X140990000Y-80800000D02*
X140990000Y-81610000D01*
X137890000Y-79100000D02*
X136610000Y-79100000D01*
X137890000Y-78500000D02*
X136610000Y-78500000D01*
X140000000Y-76800000D02*
X139700000Y-76200000D01*
X140990000Y-76800000D02*
X140990000Y-75990000D01*
X139700000Y-76200000D02*
X140300000Y-76200000D01*
X140300000Y-76200000D02*
X140000000Y-76800000D01*
X140990000Y-75990000D02*
X154010000Y-75990000D01*
X154010000Y-75990000D02*
X154010000Y-78800000D01*
%TO.C,D21*%
X131710000Y-107250000D02*
X131710000Y-105550000D01*
X131710000Y-107250000D02*
X129050000Y-107250000D01*
X131710000Y-105550000D02*
X129050000Y-105550000D01*
%TO.C,D4*%
X102177500Y-70365000D02*
X102177500Y-71835000D01*
X102177500Y-71835000D02*
X104462500Y-71835000D01*
X104462500Y-70365000D02*
X102177500Y-70365000D01*
%TO.C,J6*%
X111865000Y-65810000D02*
X111865000Y-67510000D01*
X111865000Y-67510000D02*
X114215000Y-67510000D01*
X125735000Y-67510000D02*
X125735000Y-69450000D01*
X126165000Y-60340000D02*
X113785000Y-60340000D01*
X128085000Y-65810000D02*
X128085000Y-67510000D01*
X128085000Y-67510000D02*
X125735000Y-67510000D01*
%TO.C,D19*%
X85586842Y-85942000D02*
X87546842Y-85942000D01*
X85586842Y-87142000D02*
X87546842Y-87142000D01*
X87546842Y-87142000D02*
X87546842Y-85942000D01*
%TO.C,R64*%
X137927500Y-65980242D02*
X137927500Y-66454758D01*
X138972500Y-65980242D02*
X138972500Y-66454758D01*
%TO.C,C6*%
X94390000Y-76068748D02*
X94390000Y-76591252D01*
X95860000Y-76068748D02*
X95860000Y-76591252D01*
%TO.C,TP5*%
X85881842Y-108370000D02*
X87281842Y-108370000D01*
X85881842Y-109770000D02*
X85881842Y-108370000D01*
X87281842Y-108370000D02*
X87281842Y-109770000D01*
X87281842Y-109770000D02*
X85881842Y-109770000D01*
%TO.C,R50*%
X120370000Y-111253641D02*
X120370000Y-110946359D01*
X121130000Y-111253641D02*
X121130000Y-110946359D01*
%TO.C,R24*%
X121111359Y-89720000D02*
X121418641Y-89720000D01*
X121111359Y-90480000D02*
X121418641Y-90480000D01*
%TO.C,D13*%
X133550000Y-67947500D02*
X133550000Y-65287500D01*
X133550000Y-67947500D02*
X135250000Y-67947500D01*
X135250000Y-67947500D02*
X135250000Y-65287500D01*
%TO.C,R16*%
X121111359Y-72320000D02*
X121418641Y-72320000D01*
X121111359Y-73080000D02*
X121418641Y-73080000D01*
%TO.C,R23*%
X115565000Y-90327064D02*
X115565000Y-88872936D01*
X117385000Y-90327064D02*
X117385000Y-88872936D01*
%TO.C,C39*%
X129740000Y-118287836D02*
X129740000Y-118072164D01*
X130460000Y-118287836D02*
X130460000Y-118072164D01*
%TO.C,U4*%
X91215000Y-71090000D02*
X91265000Y-71090000D01*
X91215000Y-72910000D02*
X91215000Y-71090000D01*
X91265000Y-72910000D02*
X91215000Y-72910000D01*
X92385000Y-71090000D02*
X93165000Y-71090000D01*
X94285000Y-71090000D02*
X94335000Y-71090000D01*
X94335000Y-71090000D02*
X94335000Y-72910000D01*
X94335000Y-72910000D02*
X94285000Y-72910000D01*
X91265000Y-73450000D02*
X90935000Y-73690000D01*
X90935000Y-73210000D01*
X91265000Y-73450000D01*
G36*
X91265000Y-73450000D02*
G01*
X90935000Y-73690000D01*
X90935000Y-73210000D01*
X91265000Y-73450000D01*
G37*
%TO.C,R74*%
X90505000Y-127891359D02*
X90505000Y-128198641D01*
X91265000Y-127891359D02*
X91265000Y-128198641D01*
%TO.C,J5*%
X91365000Y-65810000D02*
X91365000Y-67510000D01*
X91365000Y-67510000D02*
X93715000Y-67510000D01*
X105235000Y-67510000D02*
X105235000Y-69450000D01*
X105665000Y-60340000D02*
X93285000Y-60340000D01*
X107585000Y-65810000D02*
X107585000Y-67510000D01*
X107585000Y-67510000D02*
X105235000Y-67510000D01*
%TO.C,R10*%
X90602500Y-76347258D02*
X90602500Y-75872742D01*
X91647500Y-76347258D02*
X91647500Y-75872742D01*
%TO.C,C7*%
X104070000Y-74790000D02*
X104070000Y-77810000D01*
X104070000Y-77810000D02*
X108290000Y-77810000D01*
X108290000Y-74790000D02*
X104070000Y-74790000D01*
%TO.C,C27*%
X92170222Y-120940000D02*
X93592726Y-120940000D01*
X92170222Y-122760000D02*
X93592726Y-122760000D01*
%TO.C,D6*%
X122677500Y-87765000D02*
X122677500Y-89235000D01*
X122677500Y-89235000D02*
X124962500Y-89235000D01*
X124962500Y-87765000D02*
X122677500Y-87765000D01*
%TO.C,C57*%
X124690000Y-114407836D02*
X124690000Y-114192164D01*
X125410000Y-114407836D02*
X125410000Y-114192164D01*
%TO.C,C25*%
X82584664Y-96796000D02*
X82800336Y-96796000D01*
X82584664Y-97516000D02*
X82800336Y-97516000D01*
%TO.C,R48*%
X93437742Y-112677500D02*
X93912258Y-112677500D01*
X93437742Y-113722500D02*
X93912258Y-113722500D01*
%TO.C,R21*%
X112902500Y-80187258D02*
X112902500Y-79712742D01*
X113947500Y-80187258D02*
X113947500Y-79712742D01*
%TO.C,J9*%
X73770000Y-96766000D02*
X73770000Y-102696000D01*
X76590000Y-95496000D02*
X78040000Y-95496000D01*
X76590000Y-103966000D02*
X78040000Y-103966000D01*
X78040000Y-95496000D02*
X78040000Y-97296000D01*
X78040000Y-97296000D02*
X79030000Y-97296000D01*
X78040000Y-103966000D02*
X78040000Y-102166000D01*
%TO.C,R34*%
X90602500Y-93747258D02*
X90602500Y-93272742D01*
X91647500Y-93747258D02*
X91647500Y-93272742D01*
%TO.C,R47*%
X135953641Y-123420000D02*
X135646359Y-123420000D01*
X135953641Y-124180000D02*
X135646359Y-124180000D01*
%TO.C,C38*%
X128640000Y-118287836D02*
X128640000Y-118072164D01*
X129360000Y-118287836D02*
X129360000Y-118072164D01*
%TO.C,U2*%
X82182500Y-118265000D02*
X85402500Y-118265000D01*
X82182500Y-118490000D02*
X82182500Y-118265000D01*
X82182500Y-121485000D02*
X82182500Y-121260000D01*
X85402500Y-118265000D02*
X85402500Y-118490000D01*
X85402500Y-121260000D02*
X85402500Y-121485000D01*
X85402500Y-121485000D02*
X82182500Y-121485000D01*
X86262500Y-121095000D02*
X85932500Y-120855000D01*
X86262500Y-120615000D01*
X86262500Y-121095000D01*
G36*
X86262500Y-121095000D02*
G01*
X85932500Y-120855000D01*
X86262500Y-120615000D01*
X86262500Y-121095000D01*
G37*
%TO.C,TP2*%
X126025000Y-70700000D02*
X128425000Y-70700000D01*
X126025000Y-73100000D02*
X126025000Y-70700000D01*
X128425000Y-70700000D02*
X128425000Y-73100000D01*
X128425000Y-73100000D02*
X126025000Y-73100000D01*
%TO.C,R67*%
X139070000Y-68968859D02*
X139070000Y-69276141D01*
X139830000Y-68968859D02*
X139830000Y-69276141D01*
%TO.C,C14*%
X117140000Y-93991252D02*
X117140000Y-93468748D01*
X118610000Y-93991252D02*
X118610000Y-93468748D01*
%TO.C,C21*%
X94390000Y-93468748D02*
X94390000Y-93991252D01*
X95860000Y-93468748D02*
X95860000Y-93991252D01*
%TO.C,U8*%
X111715000Y-88490000D02*
X111765000Y-88490000D01*
X111715000Y-90310000D02*
X111715000Y-88490000D01*
X111765000Y-90310000D02*
X111715000Y-90310000D01*
X112885000Y-88490000D02*
X113665000Y-88490000D01*
X114785000Y-88490000D02*
X114835000Y-88490000D01*
X114835000Y-88490000D02*
X114835000Y-90310000D01*
X114835000Y-90310000D02*
X114785000Y-90310000D01*
X111765000Y-90850000D02*
X111435000Y-91090000D01*
X111435000Y-90610000D01*
X111765000Y-90850000D01*
G36*
X111765000Y-90850000D02*
G01*
X111435000Y-91090000D01*
X111435000Y-90610000D01*
X111765000Y-90850000D01*
G37*
%TO.C,D11*%
X120016474Y-112515000D02*
X120016474Y-114800000D01*
X121486474Y-112515000D02*
X120016474Y-112515000D01*
X121486474Y-114800000D02*
X121486474Y-112515000D01*
%TO.C,C15*%
X116338748Y-100290000D02*
X117761252Y-100290000D01*
X116338748Y-102110000D02*
X117761252Y-102110000D01*
%TO.C,U3*%
X95640000Y-78740000D02*
X97460000Y-78740000D01*
X95640000Y-78790000D02*
X95640000Y-78740000D01*
X95640000Y-81860000D02*
X95640000Y-81810000D01*
X97460000Y-78740000D02*
X97460000Y-78790000D01*
X97460000Y-81810000D02*
X97460000Y-81860000D01*
X97460000Y-81860000D02*
X95640000Y-81860000D01*
X95100000Y-78790000D02*
X94860000Y-78460000D01*
X95340000Y-78460000D01*
X95100000Y-78790000D01*
G36*
X95100000Y-78790000D02*
G01*
X94860000Y-78460000D01*
X95340000Y-78460000D01*
X95100000Y-78790000D01*
G37*
%TO.C,R49*%
X80900000Y-95142141D02*
X80900000Y-94834859D01*
X81660000Y-95142141D02*
X81660000Y-94834859D01*
%TO.C,C1*%
X82972164Y-108240000D02*
X83187836Y-108240000D01*
X82972164Y-108960000D02*
X83187836Y-108960000D01*
%TO.C,R61*%
X132103641Y-65227500D02*
X131796359Y-65227500D01*
X132103641Y-65987500D02*
X131796359Y-65987500D01*
%TO.C,R6*%
X80900000Y-115386141D02*
X80900000Y-115078859D01*
X81660000Y-115386141D02*
X81660000Y-115078859D01*
%TO.C,C18*%
X124570000Y-92190000D02*
X124570000Y-95210000D01*
X124570000Y-95210000D02*
X128790000Y-95210000D01*
X128790000Y-92190000D02*
X124570000Y-92190000D01*
%TO.C,R4*%
X80140000Y-110136359D02*
X80140000Y-110443641D01*
X80900000Y-110136359D02*
X80900000Y-110443641D01*
%TO.C,C2*%
X82584664Y-117040000D02*
X82800336Y-117040000D01*
X82584664Y-117760000D02*
X82800336Y-117760000D01*
%TO.C,D9*%
X79886842Y-99596000D02*
X80086842Y-99596000D01*
%TO.C,C50*%
X90040000Y-88212164D02*
X90040000Y-88427836D01*
X90760000Y-88212164D02*
X90760000Y-88427836D01*
%TO.C,R29*%
X112902500Y-97587258D02*
X112902500Y-97112742D01*
X113947500Y-97587258D02*
X113947500Y-97112742D01*
%TO.C,R18*%
X111102500Y-76347258D02*
X111102500Y-75872742D01*
X112147500Y-76347258D02*
X112147500Y-75872742D01*
%TO.C,C45*%
X86975000Y-130204420D02*
X86975000Y-130485580D01*
X87995000Y-130204420D02*
X87995000Y-130485580D01*
%TO.C,C44*%
X103972836Y-128940000D02*
X103757164Y-128940000D01*
X103972836Y-129660000D02*
X103757164Y-129660000D01*
%TO.C,D20*%
X119300000Y-130015000D02*
X117015000Y-130015000D01*
X117015000Y-131485000D02*
X119300000Y-131485000D01*
X117015000Y-130015000D02*
X117015000Y-131485000D01*
%TO.C,U7*%
X116140000Y-96140000D02*
X117960000Y-96140000D01*
X116140000Y-96190000D02*
X116140000Y-96140000D01*
X116140000Y-99260000D02*
X116140000Y-99210000D01*
X117960000Y-96140000D02*
X117960000Y-96190000D01*
X117960000Y-99210000D02*
X117960000Y-99260000D01*
X117960000Y-99260000D02*
X116140000Y-99260000D01*
X115600000Y-96190000D02*
X115360000Y-95860000D01*
X115840000Y-95860000D01*
X115600000Y-96190000D01*
G36*
X115600000Y-96190000D02*
G01*
X115360000Y-95860000D01*
X115840000Y-95860000D01*
X115600000Y-96190000D01*
G37*
%TO.C,F5*%
X97565000Y-88997936D02*
X97565000Y-90202064D01*
X99385000Y-88997936D02*
X99385000Y-90202064D01*
%TO.C,TP7*%
X131250000Y-66737500D02*
X132650000Y-66737500D01*
X131250000Y-68137500D02*
X131250000Y-66737500D01*
X132650000Y-66737500D02*
X132650000Y-68137500D01*
X132650000Y-68137500D02*
X131250000Y-68137500D01*
%TO.C,C17*%
X120150000Y-95210000D02*
X124370000Y-95210000D01*
X124370000Y-92190000D02*
X120150000Y-92190000D01*
X124370000Y-95210000D02*
X124370000Y-92190000D01*
%TO.C,C29*%
X93440000Y-109538748D02*
X93440000Y-110061252D01*
X94910000Y-109538748D02*
X94910000Y-110061252D01*
%TO.C,C11*%
X114890000Y-76068748D02*
X114890000Y-76591252D01*
X116360000Y-76068748D02*
X116360000Y-76591252D01*
%TO.C,C34*%
X135210000Y-73696920D02*
X135210000Y-73978080D01*
X136230000Y-73696920D02*
X136230000Y-73978080D01*
%TO.C,R14*%
X90602500Y-79712742D02*
X90602500Y-80187258D01*
X91647500Y-79712742D02*
X91647500Y-80187258D01*
%TO.C,C47*%
X90040000Y-70812164D02*
X90040000Y-71027836D01*
X90760000Y-70812164D02*
X90760000Y-71027836D01*
%TO.C,R13*%
X92402500Y-80187258D02*
X92402500Y-79712742D01*
X93447500Y-80187258D02*
X93447500Y-79712742D01*
%TO.C,C16*%
X114890000Y-93468748D02*
X114890000Y-93991252D01*
X116360000Y-93468748D02*
X116360000Y-93991252D01*
%TO.C,R51*%
X120228974Y-120837258D02*
X120228974Y-120362742D01*
X121273974Y-120837258D02*
X121273974Y-120362742D01*
%TO.C,C9*%
X117140000Y-76591252D02*
X117140000Y-76068748D01*
X118610000Y-76591252D02*
X118610000Y-76068748D01*
%TO.C,Q1*%
X82370000Y-109440000D02*
X84190000Y-109440000D01*
X82370000Y-109490000D02*
X82370000Y-109440000D01*
X82370000Y-111390000D02*
X82370000Y-110610000D01*
X82370000Y-112560000D02*
X82370000Y-112510000D01*
X84190000Y-109440000D02*
X84190000Y-110440000D01*
X84190000Y-111560000D02*
X84190000Y-112560000D01*
X84190000Y-112560000D02*
X82370000Y-112560000D01*
X82070000Y-110950000D02*
X81590000Y-110950000D01*
X81830000Y-110620000D01*
X82070000Y-110950000D01*
G36*
X82070000Y-110950000D02*
G01*
X81590000Y-110950000D01*
X81830000Y-110620000D01*
X82070000Y-110950000D01*
G37*
%TO.C,R9*%
X92402500Y-75872742D02*
X92402500Y-76347258D01*
X93447500Y-75872742D02*
X93447500Y-76347258D01*
%TO.C,U1*%
X124490000Y-121090000D02*
X124965000Y-121090000D01*
X124490000Y-121565000D02*
X124490000Y-121090000D01*
X124490000Y-128310000D02*
X124490000Y-127835000D01*
X124965000Y-128310000D02*
X124490000Y-128310000D01*
X131235000Y-121090000D02*
X131710000Y-121090000D01*
X131710000Y-121090000D02*
X131710000Y-121565000D01*
X131710000Y-127835000D02*
X131710000Y-128310000D01*
X131710000Y-128310000D02*
X131235000Y-128310000D01*
X130850000Y-120560000D02*
X130610000Y-120230000D01*
X131090000Y-120230000D01*
X130850000Y-120560000D01*
G36*
X130850000Y-120560000D02*
G01*
X130610000Y-120230000D01*
X131090000Y-120230000D01*
X130850000Y-120560000D01*
G37*
%TO.C,R33*%
X92402500Y-93272742D02*
X92402500Y-93747258D01*
X93447500Y-93272742D02*
X93447500Y-93747258D01*
%TO.C,C36*%
X133270000Y-73696920D02*
X133270000Y-73978080D01*
X134290000Y-73696920D02*
X134290000Y-73978080D01*
%TO.C,D1*%
X79886842Y-118590000D02*
X80086842Y-118590000D01*
%TO.C,R30*%
X111102500Y-97112742D02*
X111102500Y-97587258D01*
X112147500Y-97112742D02*
X112147500Y-97587258D01*
%TO.C,R17*%
X112902500Y-75872742D02*
X112902500Y-76347258D01*
X113947500Y-75872742D02*
X113947500Y-76347258D01*
%TO.C,R62*%
X137327500Y-70834758D02*
X137327500Y-70360242D01*
X138372500Y-70834758D02*
X138372500Y-70360242D01*
%TO.C,R70*%
X97096359Y-125990000D02*
X97403641Y-125990000D01*
X97096359Y-126750000D02*
X97403641Y-126750000D01*
%TO.C,TP9*%
X92900000Y-131230000D02*
X94300000Y-131230000D01*
X92900000Y-132630000D02*
X92900000Y-131230000D01*
X94300000Y-131230000D02*
X94300000Y-132630000D01*
X94300000Y-132630000D02*
X92900000Y-132630000D01*
%TO.C,R44*%
X90920000Y-112846359D02*
X90920000Y-113153641D01*
X91680000Y-112846359D02*
X91680000Y-113153641D01*
%TO.C,R39*%
X80826359Y-87976000D02*
X81133641Y-87976000D01*
X80826359Y-88736000D02*
X81133641Y-88736000D01*
%TO.C,R66*%
X138203641Y-74467500D02*
X137896359Y-74467500D01*
X138203641Y-75227500D02*
X137896359Y-75227500D01*
%TO.C,D14*%
X139150000Y-118590000D02*
X139150000Y-121250000D01*
X140850000Y-118590000D02*
X140850000Y-121250000D01*
X140850000Y-118590000D02*
X139150000Y-118590000D01*
%TO.C,C33*%
X136140000Y-66358080D02*
X136140000Y-66076920D01*
X137160000Y-66358080D02*
X137160000Y-66076920D01*
%TO.C,R46*%
X84718859Y-101776000D02*
X85026141Y-101776000D01*
X84718859Y-102536000D02*
X85026141Y-102536000D01*
%TO.C,F2*%
X97565000Y-71597936D02*
X97565000Y-72802064D01*
X99385000Y-71597936D02*
X99385000Y-72802064D01*
%TO.C,R12*%
X102918859Y-72320000D02*
X103226141Y-72320000D01*
X102918859Y-73080000D02*
X103226141Y-73080000D01*
%TO.C,D2*%
X79886842Y-119840000D02*
X80086842Y-119840000D01*
%TO.C,C19*%
X96640000Y-93991252D02*
X96640000Y-93468748D01*
X98110000Y-93991252D02*
X98110000Y-93468748D01*
%TO.C,R77*%
X90163641Y-132320000D02*
X89856359Y-132320000D01*
X90163641Y-133080000D02*
X89856359Y-133080000D01*
%TO.C,L4*%
X100740000Y-97250000D02*
X100740000Y-96400000D01*
X100740000Y-101950000D02*
X100740000Y-101150000D01*
X101350000Y-95790000D02*
X107050000Y-95790000D01*
X107050000Y-102610000D02*
X101400000Y-102610000D01*
X107660000Y-96400000D02*
X107660000Y-97250000D01*
X107660000Y-101150000D02*
X107660000Y-102000000D01*
X100740000Y-96400000D02*
G75*
G02*
X101350000Y-95790000I610000J0D01*
G01*
X101400000Y-102610000D02*
G75*
G02*
X100740000Y-101950000I2J660002D01*
G01*
X107050000Y-95790000D02*
G75*
G02*
X107660000Y-96400000I0J-610000D01*
G01*
X107660000Y-102000000D02*
G75*
G02*
X107050000Y-102610000I-610000J0D01*
G01*
%TO.C,D18*%
X93612500Y-127105000D02*
X95897500Y-127105000D01*
X95897500Y-125635000D02*
X93612500Y-125635000D01*
X95897500Y-127105000D02*
X95897500Y-125635000D01*
%TO.C,R8*%
X100611359Y-72320000D02*
X100918641Y-72320000D01*
X100611359Y-73080000D02*
X100918641Y-73080000D01*
%TO.C,C42*%
X105225000Y-126987836D02*
X105225000Y-126772164D01*
X105945000Y-126987836D02*
X105945000Y-126772164D01*
%TO.C,C49*%
X110540000Y-88212164D02*
X110540000Y-88427836D01*
X111260000Y-88212164D02*
X111260000Y-88427836D01*
%TO.C,U16*%
X95527500Y-127720000D02*
X97347500Y-127720000D01*
X95527500Y-127770000D02*
X95527500Y-127720000D01*
X95527500Y-130840000D02*
X95527500Y-130790000D01*
X97347500Y-127720000D02*
X97347500Y-127770000D01*
X97347500Y-128890000D02*
X97347500Y-129670000D01*
X97347500Y-130790000D02*
X97347500Y-130840000D01*
X97347500Y-130840000D02*
X95527500Y-130840000D01*
X94987500Y-127770000D02*
X94747500Y-127440000D01*
X95227500Y-127440000D01*
X94987500Y-127770000D01*
G36*
X94987500Y-127770000D02*
G01*
X94747500Y-127440000D01*
X95227500Y-127440000D01*
X94987500Y-127770000D01*
G37*
%TO.C,R1*%
X80826359Y-108220000D02*
X81133641Y-108220000D01*
X80826359Y-108980000D02*
X81133641Y-108980000D01*
%TO.C,R40*%
X82538859Y-101776000D02*
X82846141Y-101776000D01*
X82538859Y-102536000D02*
X82846141Y-102536000D01*
%TO.C,D3*%
X79045000Y-114412500D02*
X79045000Y-116697500D01*
X79045000Y-116697500D02*
X80515000Y-116697500D01*
X80515000Y-116697500D02*
X80515000Y-114412500D01*
%TO.C,C48*%
X110540000Y-70812164D02*
X110540000Y-71027836D01*
X111260000Y-70812164D02*
X111260000Y-71027836D01*
%TO.C,D16*%
X108850000Y-66110000D02*
X108850000Y-63450000D01*
X108850000Y-66110000D02*
X110550000Y-66110000D01*
X110550000Y-66110000D02*
X110550000Y-63450000D01*
%TO.C,L3*%
X121240000Y-97250000D02*
X121240000Y-96400000D01*
X121240000Y-101950000D02*
X121240000Y-101150000D01*
X121850000Y-95790000D02*
X127550000Y-95790000D01*
X127550000Y-102610000D02*
X121900000Y-102610000D01*
X128160000Y-96400000D02*
X128160000Y-97250000D01*
X128160000Y-101150000D02*
X128160000Y-102000000D01*
X121240000Y-96400000D02*
G75*
G02*
X121850000Y-95790000I610000J0D01*
G01*
X121900000Y-102610000D02*
G75*
G02*
X121240000Y-101950000I2J660002D01*
G01*
X127550000Y-95790000D02*
G75*
G02*
X128160000Y-96400000I0J-610000D01*
G01*
X128160000Y-102000000D02*
G75*
G02*
X127550000Y-102610000I-610000J0D01*
G01*
%TO.C,R69*%
X135953641Y-122420000D02*
X135646359Y-122420000D01*
X135953641Y-123180000D02*
X135646359Y-123180000D01*
%TO.C,C23*%
X104070000Y-92190000D02*
X104070000Y-95210000D01*
X104070000Y-95210000D02*
X108290000Y-95210000D01*
X108290000Y-92190000D02*
X104070000Y-92190000D01*
%TO.C,F1*%
X81727936Y-105865000D02*
X82932064Y-105865000D01*
X81727936Y-107685000D02*
X82932064Y-107685000D01*
%TO.C,D7*%
X102177500Y-87765000D02*
X102177500Y-89235000D01*
X102177500Y-89235000D02*
X104462500Y-89235000D01*
X104462500Y-87765000D02*
X102177500Y-87765000D01*
%TO.C,U11*%
X82182500Y-98021000D02*
X85402500Y-98021000D01*
X82182500Y-98246000D02*
X82182500Y-98021000D01*
X82182500Y-101241000D02*
X82182500Y-101016000D01*
X85402500Y-98021000D02*
X85402500Y-98246000D01*
X85402500Y-101016000D02*
X85402500Y-101241000D01*
X85402500Y-101241000D02*
X82182500Y-101241000D01*
X86262500Y-100851000D02*
X85932500Y-100611000D01*
X86262500Y-100371000D01*
X86262500Y-100851000D01*
G36*
X86262500Y-100851000D02*
G01*
X85932500Y-100611000D01*
X86262500Y-100371000D01*
X86262500Y-100851000D01*
G37*
%TO.C,Q2*%
X82370000Y-89196000D02*
X84190000Y-89196000D01*
X82370000Y-89246000D02*
X82370000Y-89196000D01*
X82370000Y-91146000D02*
X82370000Y-90366000D01*
X82370000Y-92316000D02*
X82370000Y-92266000D01*
X84190000Y-89196000D02*
X84190000Y-90196000D01*
X84190000Y-91316000D02*
X84190000Y-92316000D01*
X84190000Y-92316000D02*
X82370000Y-92316000D01*
X82070000Y-90706000D02*
X81590000Y-90706000D01*
X81830000Y-90376000D01*
X82070000Y-90706000D01*
G36*
X82070000Y-90706000D02*
G01*
X81590000Y-90706000D01*
X81830000Y-90376000D01*
X82070000Y-90706000D01*
G37*
%TO.C,L2*%
X121240000Y-79850000D02*
X121240000Y-79000000D01*
X121240000Y-84550000D02*
X121240000Y-83750000D01*
X121850000Y-78390000D02*
X127550000Y-78390000D01*
X127550000Y-85210000D02*
X121900000Y-85210000D01*
X128160000Y-79000000D02*
X128160000Y-79850000D01*
X128160000Y-83750000D02*
X128160000Y-84600000D01*
X121240000Y-79000000D02*
G75*
G02*
X121850000Y-78390000I610000J0D01*
G01*
X121900000Y-85210000D02*
G75*
G02*
X121240000Y-84550000I2J660002D01*
G01*
X127550000Y-78390000D02*
G75*
G02*
X128160000Y-79000000I0J-610000D01*
G01*
X128160000Y-84600000D02*
G75*
G02*
X127550000Y-85210000I-610000J0D01*
G01*
%TO.C,U5*%
X116140000Y-78740000D02*
X117960000Y-78740000D01*
X116140000Y-78790000D02*
X116140000Y-78740000D01*
X116140000Y-81860000D02*
X116140000Y-81810000D01*
X117960000Y-78740000D02*
X117960000Y-78790000D01*
X117960000Y-81810000D02*
X117960000Y-81860000D01*
X117960000Y-81860000D02*
X116140000Y-81860000D01*
X115600000Y-78790000D02*
X115360000Y-78460000D01*
X115840000Y-78460000D01*
X115600000Y-78790000D01*
G36*
X115600000Y-78790000D02*
G01*
X115360000Y-78460000D01*
X115840000Y-78460000D01*
X115600000Y-78790000D01*
G37*
%TO.C,R19*%
X121393641Y-71020000D02*
X121086359Y-71020000D01*
X121393641Y-71780000D02*
X121086359Y-71780000D01*
%TO.C,D8*%
X79886842Y-98346000D02*
X80086842Y-98346000D01*
%TO.C,R65*%
X139070000Y-70993859D02*
X139070000Y-71301141D01*
X139830000Y-70993859D02*
X139830000Y-71301141D01*
%TO.C,U18*%
X89385000Y-129390000D02*
X90685000Y-129390000D01*
X89385000Y-131710000D02*
X90435000Y-131710000D01*
X90795000Y-131990000D02*
X90795000Y-131710000D01*
X91075000Y-131710000D01*
X90795000Y-131990000D01*
G36*
X90795000Y-131990000D02*
G01*
X90795000Y-131710000D01*
X91075000Y-131710000D01*
X90795000Y-131990000D01*
G37*
%TO.C,R15*%
X115565000Y-72927064D02*
X115565000Y-71472936D01*
X117385000Y-72927064D02*
X117385000Y-71472936D01*
%TO.C,C4*%
X96640000Y-76591252D02*
X96640000Y-76068748D01*
X98110000Y-76591252D02*
X98110000Y-76068748D01*
%TO.C,J2*%
X73770000Y-107410000D02*
X73770000Y-113340000D01*
X76590000Y-106140000D02*
X78040000Y-106140000D01*
X76590000Y-114610000D02*
X78040000Y-114610000D01*
X78040000Y-106140000D02*
X78040000Y-107940000D01*
X78040000Y-107940000D02*
X79030000Y-107940000D01*
X78040000Y-114610000D02*
X78040000Y-112810000D01*
%TO.C,C12*%
X124570000Y-74790000D02*
X124570000Y-77810000D01*
X124570000Y-77810000D02*
X128790000Y-77810000D01*
X128790000Y-74790000D02*
X124570000Y-74790000D01*
%TO.C,F3*%
X118065000Y-71597936D02*
X118065000Y-72802064D01*
X119885000Y-71597936D02*
X119885000Y-72802064D01*
%TO.C,R31*%
X95065000Y-90327064D02*
X95065000Y-88872936D01*
X96885000Y-90327064D02*
X96885000Y-88872936D01*
%TO.C,C10*%
X116338748Y-82890000D02*
X117761252Y-82890000D01*
X116338748Y-84710000D02*
X117761252Y-84710000D01*
%TO.C,R22*%
X111102500Y-79712742D02*
X111102500Y-80187258D01*
X112147500Y-79712742D02*
X112147500Y-80187258D01*
%TO.C,C40*%
X92820000Y-128989420D02*
X92820000Y-129270580D01*
X93840000Y-128989420D02*
X93840000Y-129270580D01*
%TO.C,U6*%
X111715000Y-71090000D02*
X111765000Y-71090000D01*
X111715000Y-72910000D02*
X111715000Y-71090000D01*
X111765000Y-72910000D02*
X111715000Y-72910000D01*
X112885000Y-71090000D02*
X113665000Y-71090000D01*
X114785000Y-71090000D02*
X114835000Y-71090000D01*
X114835000Y-71090000D02*
X114835000Y-72910000D01*
X114835000Y-72910000D02*
X114785000Y-72910000D01*
X111765000Y-73450000D02*
X111435000Y-73690000D01*
X111435000Y-73210000D01*
X111765000Y-73450000D01*
G36*
X111765000Y-73450000D02*
G01*
X111435000Y-73690000D01*
X111435000Y-73210000D01*
X111765000Y-73450000D01*
G37*
%TO.C,C51*%
X89640000Y-120612164D02*
X89640000Y-120827836D01*
X90360000Y-120612164D02*
X90360000Y-120827836D01*
%TO.C,C46*%
X106325000Y-126987836D02*
X106325000Y-126772164D01*
X107045000Y-126987836D02*
X107045000Y-126772164D01*
%TO.C,C24*%
X82972164Y-87996000D02*
X83187836Y-87996000D01*
X82972164Y-88716000D02*
X83187836Y-88716000D01*
%TO.C,R25*%
X112902500Y-93272742D02*
X112902500Y-93747258D01*
X113947500Y-93272742D02*
X113947500Y-93747258D01*
%TO.C,C13*%
X120150000Y-77810000D02*
X124370000Y-77810000D01*
X124370000Y-74790000D02*
X120150000Y-74790000D01*
X124370000Y-77810000D02*
X124370000Y-74790000D01*
%TO.C,R73*%
X103701359Y-130020000D02*
X104008641Y-130020000D01*
X103701359Y-130780000D02*
X104008641Y-130780000D01*
%TO.C,D15*%
X88550000Y-66537500D02*
X88550000Y-63877500D01*
X88550000Y-66537500D02*
X90250000Y-66537500D01*
X90250000Y-66537500D02*
X90250000Y-63877500D01*
%TO.C,R45*%
X80140000Y-89892359D02*
X80140000Y-90199641D01*
X80900000Y-89892359D02*
X80900000Y-90199641D01*
%TO.C,F4*%
X118065000Y-88997936D02*
X118065000Y-90202064D01*
X119885000Y-88997936D02*
X119885000Y-90202064D01*
%TO.C,J8*%
X125040000Y-134480000D02*
X125040000Y-133100000D01*
X126420000Y-134480000D02*
X125040000Y-134480000D01*
X127690000Y-131720000D02*
X137960000Y-131720000D01*
X127690000Y-134480000D02*
X127690000Y-131720000D01*
X127690000Y-134480000D02*
X137960000Y-134480000D01*
X137960000Y-134480000D02*
X137960000Y-131720000D01*
%TO.C,U15*%
X133500000Y-69027500D02*
X133940000Y-69027500D01*
X136000000Y-69027500D02*
X135560000Y-69027500D01*
X136000000Y-71247500D02*
X135560000Y-71247500D01*
X133940000Y-71527500D02*
X133660000Y-71247500D01*
X133940000Y-71247500D01*
X133940000Y-71527500D01*
G36*
X133940000Y-71527500D02*
G01*
X133660000Y-71247500D01*
X133940000Y-71247500D01*
X133940000Y-71527500D01*
G37*
%TO.C,D5*%
X122677500Y-70365000D02*
X122677500Y-71835000D01*
X122677500Y-71835000D02*
X124962500Y-71835000D01*
X124962500Y-70365000D02*
X122677500Y-70365000D01*
%TO.C,C43*%
X87650580Y-127335000D02*
X87369420Y-127335000D01*
X87650580Y-128355000D02*
X87369420Y-128355000D01*
%TO.C,U17*%
X105732500Y-128740000D02*
X106207500Y-128740000D01*
X105732500Y-129215000D02*
X105732500Y-128740000D01*
X105732500Y-131960000D02*
X105732500Y-131485000D01*
X106207500Y-131960000D02*
X105732500Y-131960000D01*
X108477500Y-128740000D02*
X108952500Y-128740000D01*
X108952500Y-128740000D02*
X108952500Y-129215000D01*
X108952500Y-131485000D02*
X108952500Y-131960000D01*
X108952500Y-131960000D02*
X108477500Y-131960000D01*
X109812500Y-131340000D02*
X109482500Y-131100000D01*
X109812500Y-130860000D01*
X109812500Y-131340000D01*
G36*
X109812500Y-131340000D02*
G01*
X109482500Y-131100000D01*
X109812500Y-130860000D01*
X109812500Y-131340000D01*
G37*
%TO.C,R43*%
X120228974Y-108312258D02*
X120228974Y-107837742D01*
X121273974Y-108312258D02*
X121273974Y-107837742D01*
%TO.C,R3*%
X84600000Y-108916359D02*
X84600000Y-109223641D01*
X85360000Y-108916359D02*
X85360000Y-109223641D01*
%TO.C,TP3*%
X126025000Y-88100000D02*
X128425000Y-88100000D01*
X126025000Y-90500000D02*
X126025000Y-88100000D01*
X128425000Y-88100000D02*
X128425000Y-90500000D01*
X128425000Y-90500000D02*
X126025000Y-90500000D01*
%TO.C,C35*%
X131140000Y-73696920D02*
X131140000Y-73978080D01*
X132160000Y-73696920D02*
X132160000Y-73978080D01*
%TO.C,R35*%
X100893641Y-88420000D02*
X100586359Y-88420000D01*
X100893641Y-89180000D02*
X100586359Y-89180000D01*
%TO.C,L1*%
X100740000Y-79850000D02*
X100740000Y-79000000D01*
X100740000Y-84550000D02*
X100740000Y-83750000D01*
X101350000Y-78390000D02*
X107050000Y-78390000D01*
X107050000Y-85210000D02*
X101400000Y-85210000D01*
X107660000Y-79000000D02*
X107660000Y-79850000D01*
X107660000Y-83750000D02*
X107660000Y-84600000D01*
X100740000Y-79000000D02*
G75*
G02*
X101350000Y-78390000I610000J0D01*
G01*
X101400000Y-85210000D02*
G75*
G02*
X100740000Y-84550000I2J660002D01*
G01*
X107050000Y-78390000D02*
G75*
G02*
X107660000Y-79000000I0J-610000D01*
G01*
X107660000Y-84600000D02*
G75*
G02*
X107050000Y-85210000I-610000J0D01*
G01*
%TO.C,D17*%
X85586842Y-106186000D02*
X87546842Y-106186000D01*
X85586842Y-107386000D02*
X87546842Y-107386000D01*
X87546842Y-107386000D02*
X87546842Y-106186000D01*
%TO.C,C28*%
X93440000Y-105888748D02*
X93440000Y-106411252D01*
X94910000Y-105888748D02*
X94910000Y-106411252D01*
%TO.C,C55*%
X126742164Y-112540000D02*
X126957836Y-112540000D01*
X126742164Y-113260000D02*
X126957836Y-113260000D01*
%TO.C,R7*%
X95065000Y-72927064D02*
X95065000Y-71472936D01*
X96885000Y-72927064D02*
X96885000Y-71472936D01*
%TO.C,C20*%
X95838748Y-100290000D02*
X97261252Y-100290000D01*
X95838748Y-102110000D02*
X97261252Y-102110000D01*
%TO.C,J1*%
X73770000Y-117010000D02*
X73770000Y-122940000D01*
X76590000Y-115740000D02*
X78040000Y-115740000D01*
X76590000Y-124210000D02*
X78040000Y-124210000D01*
X78040000Y-115740000D02*
X78040000Y-117540000D01*
X78040000Y-117540000D02*
X79030000Y-117540000D01*
X78040000Y-124210000D02*
X78040000Y-122410000D01*
%TO.C,Y1*%
X125990000Y-116610000D02*
X128410000Y-116610000D01*
X128410000Y-116610000D02*
X128410000Y-113790000D01*
%TO.C,C22*%
X99650000Y-95210000D02*
X103870000Y-95210000D01*
X103870000Y-92190000D02*
X99650000Y-92190000D01*
X103870000Y-95210000D02*
X103870000Y-92190000D01*
%TO.C,U13*%
X91971474Y-117090000D02*
X93791474Y-117090000D01*
X91971474Y-117140000D02*
X91971474Y-117090000D01*
X91971474Y-119040000D02*
X91971474Y-118260000D01*
X91971474Y-120210000D02*
X91971474Y-120160000D01*
X93791474Y-117090000D02*
X93791474Y-117140000D01*
X93791474Y-120160000D02*
X93791474Y-120210000D01*
X93791474Y-120210000D02*
X91971474Y-120210000D01*
X94571474Y-120490000D02*
X94091474Y-120490000D01*
X94331474Y-120160000D01*
X94571474Y-120490000D01*
G36*
X94571474Y-120490000D02*
G01*
X94091474Y-120490000D01*
X94331474Y-120160000D01*
X94571474Y-120490000D01*
G37*
%TO.C,R75*%
X104008641Y-131120000D02*
X103701359Y-131120000D01*
X104008641Y-131880000D02*
X103701359Y-131880000D01*
%TO.C,R38*%
X90602500Y-97112742D02*
X90602500Y-97587258D01*
X91647500Y-97112742D02*
X91647500Y-97587258D01*
%TO.C,TP8*%
X85881842Y-88126000D02*
X87281842Y-88126000D01*
X85881842Y-89526000D02*
X85881842Y-88126000D01*
X87281842Y-88126000D02*
X87281842Y-89526000D01*
X87281842Y-89526000D02*
X85881842Y-89526000D01*
%TO.C,C54*%
X128890000Y-115877836D02*
X128890000Y-115662164D01*
X129610000Y-115877836D02*
X129610000Y-115662164D01*
%TO.C,R78*%
X117798859Y-131770000D02*
X118106141Y-131770000D01*
X117798859Y-132530000D02*
X118106141Y-132530000D01*
%TO.C,R71*%
X123470000Y-114146359D02*
X123470000Y-114453641D01*
X124230000Y-114146359D02*
X124230000Y-114453641D01*
%TO.C,C5*%
X95838748Y-82890000D02*
X97261252Y-82890000D01*
X95838748Y-84710000D02*
X97261252Y-84710000D01*
%TO.C,R76*%
X89405000Y-128198641D02*
X89405000Y-127891359D01*
X90165000Y-128198641D02*
X90165000Y-127891359D01*
%TO.C,C8*%
X99650000Y-77810000D02*
X103870000Y-77810000D01*
X103870000Y-74790000D02*
X99650000Y-74790000D01*
X103870000Y-77810000D02*
X103870000Y-74790000D01*
%TO.C,R2*%
X82538859Y-122020000D02*
X82846141Y-122020000D01*
X82538859Y-122780000D02*
X82846141Y-122780000D01*
%TO.C,TP1*%
X105525000Y-70700000D02*
X107925000Y-70700000D01*
X105525000Y-73100000D02*
X105525000Y-70700000D01*
X107925000Y-70700000D02*
X107925000Y-73100000D01*
X107925000Y-73100000D02*
X105525000Y-73100000D01*
%TO.C,R36*%
X102918859Y-89720000D02*
X103226141Y-89720000D01*
X102918859Y-90480000D02*
X103226141Y-90480000D01*
%TO.C,U10*%
X91215000Y-88490000D02*
X91265000Y-88490000D01*
X91215000Y-90310000D02*
X91215000Y-88490000D01*
X91265000Y-90310000D02*
X91215000Y-90310000D01*
X92385000Y-88490000D02*
X93165000Y-88490000D01*
X94285000Y-88490000D02*
X94335000Y-88490000D01*
X94335000Y-88490000D02*
X94335000Y-90310000D01*
X94335000Y-90310000D02*
X94285000Y-90310000D01*
X91265000Y-90850000D02*
X90935000Y-91090000D01*
X90935000Y-90610000D01*
X91265000Y-90850000D01*
G36*
X91265000Y-90850000D02*
G01*
X90935000Y-91090000D01*
X90935000Y-90610000D01*
X91265000Y-90850000D01*
G37*
%TO.C,R68*%
X131127500Y-69900242D02*
X131127500Y-70374758D01*
X132172500Y-69900242D02*
X132172500Y-70374758D01*
%TO.C,U9*%
X95640000Y-96140000D02*
X97460000Y-96140000D01*
X95640000Y-96190000D02*
X95640000Y-96140000D01*
X95640000Y-99260000D02*
X95640000Y-99210000D01*
X97460000Y-96140000D02*
X97460000Y-96190000D01*
X97460000Y-99210000D02*
X97460000Y-99260000D01*
X97460000Y-99260000D02*
X95640000Y-99260000D01*
X95100000Y-96190000D02*
X94860000Y-95860000D01*
X95340000Y-95860000D01*
X95100000Y-96190000D01*
G36*
X95100000Y-96190000D02*
G01*
X94860000Y-95860000D01*
X95340000Y-95860000D01*
X95100000Y-96190000D01*
G37*
%TO.C,C3*%
X84980336Y-117040000D02*
X84764664Y-117040000D01*
X84980336Y-117760000D02*
X84764664Y-117760000D01*
%TO.C,R27*%
X121393641Y-88420000D02*
X121086359Y-88420000D01*
X121393641Y-89180000D02*
X121086359Y-89180000D01*
%TO.C,R37*%
X92402500Y-97587258D02*
X92402500Y-97112742D01*
X93447500Y-97587258D02*
X93447500Y-97112742D01*
%TO.C,R11*%
X100893641Y-71020000D02*
X100586359Y-71020000D01*
X100893641Y-71780000D02*
X100586359Y-71780000D01*
%TO.C,R41*%
X84600000Y-88672359D02*
X84600000Y-88979641D01*
X85360000Y-88672359D02*
X85360000Y-88979641D01*
%TO.C,C41*%
X96259420Y-131690000D02*
X96540580Y-131690000D01*
X96259420Y-132710000D02*
X96540580Y-132710000D01*
%TO.C,R42*%
X93608538Y-114590000D02*
X92154410Y-114590000D01*
X93608538Y-116410000D02*
X92154410Y-116410000D01*
%TO.C,R28*%
X123418859Y-89720000D02*
X123726141Y-89720000D01*
X123418859Y-90480000D02*
X123726141Y-90480000D01*
%TO.C,R20*%
X123418859Y-72320000D02*
X123726141Y-72320000D01*
X123418859Y-73080000D02*
X123726141Y-73080000D01*
%TO.C,TP4*%
X105525000Y-88100000D02*
X107925000Y-88100000D01*
X105525000Y-90500000D02*
X105525000Y-88100000D01*
X107925000Y-88100000D02*
X107925000Y-90500000D01*
X107925000Y-90500000D02*
X105525000Y-90500000D01*
%TO.C,R52*%
X120227500Y-117637258D02*
X120227500Y-117162742D01*
X121272500Y-117637258D02*
X121272500Y-117162742D01*
%TO.C,R26*%
X111102500Y-93747258D02*
X111102500Y-93272742D01*
X112147500Y-93747258D02*
X112147500Y-93272742D01*
%TO.C,R63*%
X138362742Y-72700000D02*
X138837258Y-72700000D01*
X138362742Y-73745000D02*
X138837258Y-73745000D01*
%TO.C,F6*%
X81727936Y-85621000D02*
X82932064Y-85621000D01*
X81727936Y-87441000D02*
X82932064Y-87441000D01*
%TO.C,J11*%
X73390000Y-71416750D02*
X75490000Y-71416750D01*
X73390000Y-81536750D02*
X73390000Y-71416750D01*
X73390000Y-81536750D02*
X75490000Y-81536750D01*
X75490000Y-71416750D02*
X75490000Y-70826750D01*
X75490000Y-82126750D02*
X75490000Y-81536750D01*
X77710000Y-71416750D02*
X77710000Y-70826750D01*
X77710000Y-71416750D02*
X82610000Y-71416750D01*
X77710000Y-81536750D02*
X82610000Y-81536750D01*
X77710000Y-82126750D02*
X77710000Y-81536750D01*
X82610000Y-81536750D02*
X82610000Y-71416750D01*
X75490000Y-70826750D02*
G75*
G02*
X77710000Y-70826750I1110000J0D01*
G01*
X77710000Y-82126750D02*
G75*
G02*
X75490000Y-82126750I-1110000J0D01*
G01*
%TO.C,J7*%
X73770000Y-87166000D02*
X73770000Y-93096000D01*
X76590000Y-85896000D02*
X78040000Y-85896000D01*
X76590000Y-94366000D02*
X78040000Y-94366000D01*
X78040000Y-85896000D02*
X78040000Y-87696000D01*
X78040000Y-87696000D02*
X79030000Y-87696000D01*
X78040000Y-94366000D02*
X78040000Y-92566000D01*
%TO.C,R5*%
X84718859Y-122020000D02*
X85026141Y-122020000D01*
X84718859Y-122780000D02*
X85026141Y-122780000D01*
%TO.C,D10*%
X79045000Y-94168500D02*
X79045000Y-96453500D01*
X79045000Y-96453500D02*
X80515000Y-96453500D01*
X80515000Y-96453500D02*
X80515000Y-94168500D01*
%TO.C,R72*%
X124603641Y-115610000D02*
X124296359Y-115610000D01*
X124603641Y-116370000D02*
X124296359Y-116370000D01*
%TO.C,R32*%
X100611359Y-89720000D02*
X100918641Y-89720000D01*
X100611359Y-90480000D02*
X100918641Y-90480000D01*
%TO.C,C26*%
X84980336Y-96796000D02*
X84764664Y-96796000D01*
X84980336Y-97516000D02*
X84764664Y-97516000D01*
%TD*%
M02*
