%TF.GenerationSoftware,KiCad,Pcbnew,9.0.5*%
%TF.CreationDate,2025-12-29T18:05:56-08:00*%
%TF.ProjectId,vrb,7672622e-6b69-4636-9164-5f7063625858,rev?*%
%TF.SameCoordinates,Original*%
%TF.FileFunction,Copper,L3,Inr*%
%TF.FilePolarity,Positive*%
%FSLAX46Y46*%
G04 Gerber Fmt 4.6, Leading zero omitted, Abs format (unit mm)*
G04 Created by KiCad (PCBNEW 9.0.5) date 2025-12-29 18:05:56*
%MOMM*%
%LPD*%
G01*
G04 APERTURE LIST*
G04 Aperture macros list*
%AMRoundRect*
0 Rectangle with rounded corners*
0 $1 Rounding radius*
0 $2 $3 $4 $5 $6 $7 $8 $9 X,Y pos of 4 corners*
0 Add a 4 corners polygon primitive as box body*
4,1,4,$2,$3,$4,$5,$6,$7,$8,$9,$2,$3,0*
0 Add four circle primitives for the rounded corners*
1,1,$1+$1,$2,$3*
1,1,$1+$1,$4,$5*
1,1,$1+$1,$6,$7*
1,1,$1+$1,$8,$9*
0 Add four rect primitives between the rounded corners*
20,1,$1+$1,$2,$3,$4,$5,0*
20,1,$1+$1,$4,$5,$6,$7,0*
20,1,$1+$1,$6,$7,$8,$9,0*
20,1,$1+$1,$8,$9,$2,$3,0*%
G04 Aperture macros list end*
%TA.AperFunction,ComponentPad*%
%ADD10C,3.600000*%
%TD*%
%TA.AperFunction,ComponentPad*%
%ADD11RoundRect,0.250001X-1.599999X1.099999X-1.599999X-1.099999X1.599999X-1.099999X1.599999X1.099999X0*%
%TD*%
%TA.AperFunction,ComponentPad*%
%ADD12O,3.700000X2.700000*%
%TD*%
%TA.AperFunction,ComponentPad*%
%ADD13R,1.700000X1.700000*%
%TD*%
%TA.AperFunction,ComponentPad*%
%ADD14C,1.700000*%
%TD*%
%TA.AperFunction,ComponentPad*%
%ADD15R,1.830000X1.830000*%
%TD*%
%TA.AperFunction,ComponentPad*%
%ADD16C,1.830000*%
%TD*%
%TA.AperFunction,ComponentPad*%
%ADD17C,2.655000*%
%TD*%
%TA.AperFunction,ComponentPad*%
%ADD18C,1.400000*%
%TD*%
%TA.AperFunction,ComponentPad*%
%ADD19RoundRect,0.770000X0.980000X-0.980000X0.980000X0.980000X-0.980000X0.980000X-0.980000X-0.980000X0*%
%TD*%
%TA.AperFunction,ComponentPad*%
%ADD20C,3.500000*%
%TD*%
%TA.AperFunction,ViaPad*%
%ADD21C,0.800000*%
%TD*%
%TA.AperFunction,ViaPad*%
%ADD22C,0.600000*%
%TD*%
%TA.AperFunction,ViaPad*%
%ADD23C,0.500000*%
%TD*%
G04 APERTURE END LIST*
D10*
%TO.N,GND*%
%TO.C,H3*%
X143000000Y-130000000D03*
%TD*%
D11*
%TO.N,GND*%
%TO.C,J4*%
X140050000Y-78000000D03*
D12*
%TO.N,/RC Radio/VOUT*%
X134550000Y-78000000D03*
%TD*%
D11*
%TO.N,/CM_VOUT*%
%TO.C,J10*%
X140000000Y-112900000D03*
D12*
X140000000Y-117100000D03*
%TO.N,GND*%
X134500000Y-112900000D03*
X134500000Y-117100000D03*
%TD*%
D10*
%TO.N,GND*%
%TO.C,H1*%
X78000000Y-65000000D03*
%TD*%
D11*
%TO.N,GND*%
%TO.C,J3*%
X140050000Y-95450000D03*
D12*
%TO.N,/Telemetry Radio/VOUT*%
X134550000Y-95450000D03*
%TD*%
D13*
%TO.N,+3V3*%
%TO.C,J8*%
X126420000Y-133100000D03*
D14*
%TO.N,/USART1_TX_DEBUG*%
X128960000Y-133100000D03*
%TO.N,/SWDIO*%
X131500000Y-133100000D03*
%TO.N,/SWCLK*%
X134040000Y-133100000D03*
%TO.N,GND*%
X136580000Y-133100000D03*
%TD*%
D10*
%TO.N,GND*%
%TO.C,H2*%
X143000000Y-65000000D03*
%TD*%
D15*
%TO.N,+BATT*%
%TO.C,U12*%
X99931474Y-120850000D03*
D16*
%TO.N,/CM_EN*%
X107551474Y-120850000D03*
%TO.N,GND*%
X115171474Y-120850000D03*
D17*
%TO.N,Net-(U12-VOUT-)*%
X115171474Y-107250000D03*
D16*
%TO.N,Net-(U12-TRIM)*%
X107551474Y-107250000D03*
%TO.N,/Compute Module Domain/ISENSE+*%
X103741474Y-107250000D03*
D17*
X99931474Y-107250000D03*
%TD*%
D18*
%TO.N,*%
%TO.C,J11*%
X76600000Y-81976750D03*
X76600000Y-70976750D03*
D19*
%TO.N,+BATT*%
X86600000Y-73976750D03*
D20*
%TO.N,GND*%
X86600000Y-78976750D03*
%TD*%
D10*
%TO.N,GND*%
%TO.C,H4*%
X78000000Y-130000000D03*
%TD*%
D21*
%TO.N,GND*%
X114000000Y-122600000D03*
X112600000Y-122600000D03*
X111200000Y-122600000D03*
X109800000Y-122600000D03*
X108400000Y-122600000D03*
X107000000Y-122600000D03*
X105600000Y-122600000D03*
X104200000Y-122600000D03*
X102800000Y-122600000D03*
X99400000Y-126200000D03*
X100800000Y-126200000D03*
X102200000Y-126200000D03*
X102200000Y-127200000D03*
X100800000Y-127200000D03*
X99400000Y-127200000D03*
D22*
%TO.N,+3V3*%
X104350000Y-128650000D03*
%TO.N,GND*%
X105900000Y-129100000D03*
X102750000Y-131500000D03*
X103400000Y-128650000D03*
D23*
%TO.N,/I2C3_SCL_SMBUS*%
X106300000Y-133150000D03*
%TO.N,/I2C3_SDA_SMBUS*%
X107100000Y-133150000D03*
%TO.N,/IESC1*%
X111244405Y-133057649D03*
%TO.N,/IESC2*%
X111875000Y-132900000D03*
%TO.N,/IESC3*%
X112509435Y-133053295D03*
%TO.N,/RESV0*%
X114414737Y-132909692D03*
%TO.N,/IESC4*%
X113145343Y-132918671D03*
%TO.N,/IPAYLOAD*%
X113781031Y-133054330D03*
%TO.N,/RESV1*%
X115044730Y-133069728D03*
%TO.N,/RESV2*%
X115683610Y-132950000D03*
D22*
%TO.N,GND*%
X91125000Y-98950000D03*
X98000000Y-132200000D03*
X135800000Y-81950000D03*
D23*
X97375000Y-82200000D03*
D22*
X112475000Y-62150000D03*
X79380000Y-92006000D03*
D23*
X117875000Y-82200000D03*
D22*
X104225000Y-90100000D03*
X107475000Y-93100000D03*
X76686842Y-123686000D03*
X120755000Y-88150000D03*
X100975000Y-91950000D03*
X76686842Y-106650000D03*
D23*
X118975000Y-99600000D03*
D22*
X127975000Y-75700000D03*
X134400000Y-82350000D03*
X127850000Y-119300000D03*
X92770000Y-74150000D03*
X107475000Y-75700000D03*
X91125000Y-81550000D03*
D23*
X79986842Y-118236000D03*
D22*
X121850000Y-65000000D03*
X79380000Y-121850000D03*
X134400000Y-65837500D03*
D23*
X117875000Y-99600000D03*
D22*
X128450000Y-114500000D03*
X138825000Y-88170000D03*
X83780000Y-98106000D03*
X81180000Y-90556000D03*
X125050000Y-113200000D03*
X85950000Y-127850000D03*
X132450000Y-91125000D03*
X100975000Y-74550000D03*
D23*
X98475000Y-82200000D03*
X79337176Y-119900000D03*
D22*
X113270000Y-74150000D03*
X124950000Y-64600000D03*
X91125000Y-91900000D03*
X74986842Y-92942000D03*
X92770000Y-91550000D03*
X113270000Y-91550000D03*
X128777834Y-117075000D03*
X111625000Y-74500000D03*
X85980000Y-122400000D03*
X124725000Y-72700000D03*
X81180000Y-110800000D03*
X95076474Y-118650000D03*
X134600000Y-74612500D03*
X111625000Y-98950000D03*
X129250000Y-114600000D03*
X128000000Y-112900000D03*
X81280000Y-114100000D03*
X85980000Y-102156000D03*
X138825000Y-86145000D03*
X123300000Y-116000000D03*
X74986842Y-113186000D03*
X101350000Y-64950000D03*
X91975000Y-62150000D03*
X92500000Y-129900000D03*
X87500000Y-131950000D03*
X81280000Y-93856000D03*
X96400000Y-129300000D03*
X104225000Y-72700000D03*
X121475000Y-74550000D03*
X137549277Y-74197464D03*
D23*
X79986842Y-97992000D03*
D22*
X120755000Y-70750000D03*
X104450000Y-64600000D03*
X137549277Y-90709964D03*
D23*
X97375000Y-99600000D03*
D22*
X91125000Y-74500000D03*
X130100000Y-117100000D03*
X83180000Y-116750000D03*
X135800000Y-65437500D03*
D23*
X118975000Y-82200000D03*
D22*
X76686842Y-86406000D03*
D23*
X98475000Y-99600000D03*
D22*
X79380000Y-112250000D03*
X111625000Y-91900000D03*
X136550000Y-91125000D03*
X83780000Y-118350000D03*
X120082174Y-116198290D03*
X90775000Y-131800000D03*
X124725000Y-90100000D03*
X97750000Y-127050000D03*
X83780000Y-101156000D03*
X76686842Y-103442000D03*
X136550000Y-74612500D03*
X84380000Y-116750000D03*
X138825000Y-69632500D03*
X96550000Y-128350000D03*
X89785000Y-126900000D03*
D23*
X79337176Y-99656000D03*
D22*
X74986842Y-96842000D03*
X132450000Y-74612500D03*
X111625000Y-81550000D03*
X74986842Y-117086000D03*
X100255000Y-88150000D03*
X84160000Y-108598254D03*
X100255000Y-70750000D03*
X79380000Y-101606000D03*
X131650000Y-71737500D03*
X121475000Y-91950000D03*
X134700000Y-109700000D03*
X126650000Y-116700000D03*
X84160000Y-88354254D03*
X138825000Y-71657500D03*
X134600000Y-91125000D03*
X127975000Y-93100000D03*
X83180000Y-96506000D03*
X131650000Y-88250000D03*
X83780000Y-121400000D03*
X84380000Y-96506000D03*
%TO.N,VBUS1*%
X90900000Y-126950000D03*
X88300000Y-127050000D03*
X91150000Y-132700000D03*
D23*
X87586842Y-86542000D03*
D22*
%TO.N,+3V3*%
X113425000Y-98950000D03*
X137000000Y-122800000D03*
X92500000Y-128350000D03*
X81580000Y-102156000D03*
X133050000Y-65607500D03*
X113425000Y-81550000D03*
X137000000Y-123800000D03*
X81580000Y-97156000D03*
X92925000Y-81550000D03*
X123850000Y-113200000D03*
X133050000Y-82120000D03*
X92925000Y-98950000D03*
X81580000Y-117400000D03*
X81580000Y-122400000D03*
X119951474Y-121425000D03*
%TO.N,+5V*%
X85980000Y-97156000D03*
X86430000Y-119550000D03*
X85980000Y-117400000D03*
X86430000Y-99306000D03*
D23*
%TO.N,+BATT*%
X95675000Y-99600000D03*
X112970000Y-88262500D03*
X92470000Y-70862500D03*
X94675000Y-82200000D03*
X116175000Y-82200000D03*
X115175000Y-82200000D03*
X116175000Y-99600000D03*
X94675000Y-99600000D03*
X115175000Y-99600000D03*
X95675000Y-82200000D03*
X112970000Y-70862500D03*
X92470000Y-88262500D03*
D22*
%TO.N,/FMU1_VOUT*%
X94500000Y-64600000D03*
X102600000Y-64950000D03*
%TO.N,/FMU2_VOUT*%
X123100000Y-65000000D03*
D23*
X136600000Y-67987500D03*
D22*
X115000000Y-64600000D03*
D23*
X138350000Y-67987500D03*
X137300000Y-67987500D03*
D22*
X137850000Y-70687500D03*
D23*
%TO.N,/RADIO_VOUT*%
X137300000Y-84500000D03*
X136600000Y-84500000D03*
X136600000Y-72337500D03*
X138350000Y-84500000D03*
X138350000Y-72337500D03*
D22*
X137850000Y-87200000D03*
D23*
X137300000Y-72337500D03*
%TO.N,/RADAR_VOUT*%
X136600000Y-88850000D03*
X137300000Y-88850000D03*
X138350000Y-88850000D03*
%TO.N,/CAN2_STATUS*%
X79780000Y-113700000D03*
X132250000Y-123950000D03*
%TO.N,/FMU1_STATUS*%
X128850000Y-128850000D03*
X104450000Y-71900000D03*
%TO.N,/FMU2_STATUS*%
X124950000Y-71900000D03*
X129850000Y-128850000D03*
%TO.N,/RADIO_STATUS*%
X129850000Y-120100000D03*
X124950000Y-89300000D03*
%TO.N,/RADAR_STATUS*%
X128282974Y-112205428D03*
X104450000Y-89300000D03*
%TO.N,/CAN1_STATUS*%
X79780000Y-93456000D03*
X125850000Y-128850000D03*
%TO.N,/CM_STATUS*%
X122850000Y-125975000D03*
X119951474Y-114787500D03*
X118100000Y-117600000D03*
%TO.N,/CANFD 2 (Redundant)/FDCAN_P*%
X77030000Y-109750000D03*
X77030000Y-119350000D03*
%TO.N,/CANFD 2 (Redundant)/FDCAN_N*%
X76480000Y-111000000D03*
X76480000Y-120600000D03*
X80536842Y-120600000D03*
X79986842Y-121036000D03*
X81572842Y-119562500D03*
X83080000Y-111950000D03*
%TO.N,VBUS2*%
X87586842Y-106786000D03*
D22*
X86650000Y-129570000D03*
D23*
%TO.N,/CANFD 1 (Primary)/FDCAN_P*%
X77030000Y-99106000D03*
X77030000Y-89506000D03*
%TO.N,/CANFD 1 (Primary)/FDCAN_N*%
X81572842Y-99318500D03*
X80536842Y-100356000D03*
X79986842Y-100792000D03*
X76480000Y-100356000D03*
X76480000Y-90756000D03*
X83080000Y-91706000D03*
%TO.N,/CAN2_SILENT*%
X132678030Y-127439176D03*
X84350000Y-122994000D03*
%TO.N,/CAN2_TERM*%
X132250000Y-122950000D03*
X83080000Y-110050000D03*
%TO.N,/FMU1_VSENSE*%
X89050000Y-72700000D03*
X101250000Y-70750000D03*
%TO.N,/FMU1_EN*%
X128350000Y-129300000D03*
X91125000Y-78450000D03*
%TO.N,/FMU2_VSENSE*%
X125850001Y-120134666D03*
X130000000Y-71400000D03*
X121750000Y-70750000D03*
X126400000Y-111800000D03*
%TO.N,/FMU2_EN*%
X111625000Y-78450000D03*
X129350001Y-129265334D03*
%TO.N,/RADIO_VSENSE*%
X125850000Y-111300000D03*
X121750000Y-88150000D03*
X125350000Y-119600000D03*
X129850000Y-88150000D03*
%TO.N,/RADIO_EN*%
X127850000Y-128850000D03*
X111625000Y-95850000D03*
%TO.N,/RADAR_VSENSE*%
X108850000Y-88200000D03*
X101250000Y-88150000D03*
%TO.N,/RADAR_EN*%
X91125000Y-95850000D03*
X126850000Y-128850000D03*
%TO.N,/CAN1_SILENT*%
X84350000Y-102750000D03*
X125350000Y-129350000D03*
%TO.N,/CM_VSENSE*%
X92850000Y-112450000D03*
X123534665Y-126950001D03*
%TO.N,/CAN1_TERM*%
X83080000Y-89806000D03*
X126350001Y-129265335D03*
%TO.N,/CM_EN*%
X119976474Y-119775000D03*
X123534666Y-125949999D03*
%TO.N,/CANFD 2 (Redundant)/VIN*%
X75786842Y-118100000D03*
X75786842Y-108500000D03*
%TO.N,/FDCAN2_TX*%
X85930000Y-120850000D03*
%TO.N,/FDCAN2_RX*%
X85930000Y-118900000D03*
%TO.N,/FMU1_ISENSE*%
X91820000Y-74150000D03*
X89750000Y-74150000D03*
%TO.N,/FMU2_ISENSE*%
X112320000Y-74150000D03*
X109700000Y-74150000D03*
%TO.N,/RADIO_ISENSE*%
X110450000Y-91550000D03*
X112320000Y-91550000D03*
%TO.N,/RADAR_ISENSE*%
X89400000Y-91550000D03*
X91820000Y-91550000D03*
%TO.N,/FDCAN1_RX*%
X85930000Y-98656000D03*
X127401000Y-109531310D03*
%TO.N,/FDCAN1_TX*%
X85930000Y-100606000D03*
X126900000Y-108950000D03*
%TO.N,/CM_ISENSE*%
X123950000Y-126450000D03*
X95100000Y-119600000D03*
%TO.N,/I2C3_SCL_SMBUS*%
X132250000Y-124950000D03*
X120600000Y-65000000D03*
X100100000Y-65000000D03*
%TO.N,/I2C3_SDA_SMBUS*%
X132665335Y-124449999D03*
X98850000Y-65000000D03*
X119350000Y-65000000D03*
%TO.N,/TELEM_STATUS*%
X132250000Y-125950000D03*
X131450000Y-81500000D03*
%TO.N,/Telemetry Radio/OV2*%
X136997118Y-87113234D03*
X139425000Y-88950000D03*
%TO.N,/RC_STATUS*%
X132665334Y-125450001D03*
X131450000Y-64987500D03*
%TO.N,/RC Radio/OV2*%
X136997118Y-70600734D03*
X139425000Y-72437500D03*
%TO.N,/USART1_TX_DEBUG*%
X137300000Y-121175000D03*
X132665335Y-123449999D03*
%TO.N,Net-(U1-VBAT)*%
X130700000Y-118650000D03*
X128400000Y-118650000D03*
%TO.N,/CANFD 1 (Primary)/VIN*%
X75786842Y-88256000D03*
X75786842Y-97856000D03*
%TO.N,/REG_STATUS*%
X132665335Y-126449999D03*
X89500000Y-133400000D03*
%TO.N,unconnected-(U1-PD0-Pad38)*%
X132250000Y-126950000D03*
%TD*%
M02*
