%TF.GenerationSoftware,KiCad,Pcbnew,9.0.6*%
%TF.CreationDate,2026-01-08T13:40:24-08:00*%
%TF.ProjectId,vrb,7672622e-6b69-4636-9164-5f7063625858,rev?*%
%TF.SameCoordinates,Original*%
%TF.FileFunction,Soldermask,Bot*%
%TF.FilePolarity,Negative*%
%FSLAX46Y46*%
G04 Gerber Fmt 4.6, Leading zero omitted, Abs format (unit mm)*
G04 Created by KiCad (PCBNEW 9.0.6) date 2026-01-08 13:40:24*
%MOMM*%
%LPD*%
G01*
G04 APERTURE LIST*
G04 Aperture macros list*
%AMRoundRect*
0 Rectangle with rounded corners*
0 $1 Rounding radius*
0 $2 $3 $4 $5 $6 $7 $8 $9 X,Y pos of 4 corners*
0 Add a 4 corners polygon primitive as box body*
4,1,4,$2,$3,$4,$5,$6,$7,$8,$9,$2,$3,0*
0 Add four circle primitives for the rounded corners*
1,1,$1+$1,$2,$3*
1,1,$1+$1,$4,$5*
1,1,$1+$1,$6,$7*
1,1,$1+$1,$8,$9*
0 Add four rect primitives between the rounded corners*
20,1,$1+$1,$2,$3,$4,$5,0*
20,1,$1+$1,$4,$5,$6,$7,0*
20,1,$1+$1,$6,$7,$8,$9,0*
20,1,$1+$1,$8,$9,$2,$3,0*%
G04 Aperture macros list end*
%ADD10RoundRect,0.102000X-0.175000X-1.250000X0.175000X-1.250000X0.175000X1.250000X-0.175000X1.250000X0*%
%ADD11RoundRect,0.102000X-1.250000X-1.000000X1.250000X-1.000000X1.250000X1.000000X-1.250000X1.000000X0*%
%ADD12C,0.889000*%
%ADD13C,0.711200*%
%ADD14C,2.859000*%
%ADD15C,2.034000*%
%ADD16RoundRect,0.102000X0.915000X-0.915000X0.915000X0.915000X-0.915000X0.915000X-0.915000X-0.915000X0*%
%ADD17O,3.700000X2.700000*%
%ADD18RoundRect,0.250001X-1.599999X1.099999X-1.599999X-1.099999X1.599999X-1.099999X1.599999X1.099999X0*%
%ADD19C,3.000000*%
%ADD20C,0.800000*%
%ADD21C,6.400000*%
%ADD22R,1.700000X1.700000*%
%ADD23C,1.700000*%
%ADD24C,1.400000*%
%ADD25RoundRect,0.770000X0.980000X-0.980000X0.980000X0.980000X-0.980000X0.980000X-0.980000X-0.980000X0*%
%ADD26C,3.500000*%
G04 APERTURE END LIST*
D10*
%TO.C,J12*%
X103618610Y-126650000D03*
X104253610Y-126650000D03*
X104888610Y-126650000D03*
X105523610Y-126650000D03*
X106158610Y-126650000D03*
X106793610Y-126650000D03*
X107428610Y-126650000D03*
X108063610Y-126650000D03*
X108698610Y-126650000D03*
X109333610Y-126650000D03*
X109968610Y-126650000D03*
X110603610Y-126650000D03*
X111238610Y-126650000D03*
X111873610Y-126650000D03*
X112508610Y-126650000D03*
X113143610Y-126650000D03*
X113778610Y-126650000D03*
X114413610Y-126650000D03*
X115048610Y-126650000D03*
X115683610Y-126650000D03*
X103618610Y-131350000D03*
X104253610Y-131350000D03*
X104888610Y-131350000D03*
X105523610Y-131350000D03*
X106158610Y-131350000D03*
X106793610Y-131350000D03*
X107428610Y-131350000D03*
X108063610Y-131350000D03*
X108698610Y-131350000D03*
X109333610Y-131350000D03*
X109968610Y-131350000D03*
X110603610Y-131350000D03*
X111238610Y-131350000D03*
X111873610Y-131350000D03*
X112508610Y-131350000D03*
X113143610Y-131350000D03*
X113778610Y-131350000D03*
X114413610Y-131350000D03*
X115048610Y-131350000D03*
X115683610Y-131350000D03*
D11*
X99916130Y-129000000D03*
X119386090Y-129000000D03*
D12*
X101954910Y-129000000D03*
D13*
X117347310Y-129000000D03*
%TD*%
D14*
%TO.C,U12*%
X99931474Y-107250000D03*
D15*
X103741474Y-107250000D03*
X107551474Y-107250000D03*
D14*
X115171474Y-107250000D03*
D15*
X115171474Y-120850000D03*
X107551474Y-120850000D03*
D16*
X99931474Y-120850000D03*
%TD*%
D17*
%TO.C,J3*%
X134500000Y-97450000D03*
D18*
X140000000Y-97450000D03*
D19*
X147300000Y-97450000D03*
%TD*%
%TO.C,J13*%
X147300000Y-104200000D03*
D18*
X140000000Y-104200000D03*
D17*
X134500000Y-104200000D03*
%TD*%
D19*
%TO.C,J10*%
X147300000Y-112919758D03*
D18*
X140000000Y-110819758D03*
D17*
X140000000Y-115019758D03*
X134500000Y-110819758D03*
X134500000Y-115019758D03*
%TD*%
%TO.C,J4*%
X134500000Y-78800000D03*
D18*
X140000000Y-78800000D03*
D19*
X147300000Y-78800000D03*
%TD*%
D20*
%TO.C,H3*%
X140600000Y-130000000D03*
X141302944Y-128302944D03*
X141302944Y-131697056D03*
X143000000Y-127600000D03*
D21*
X143000000Y-130000000D03*
D20*
X143000000Y-132400000D03*
X144697056Y-128302944D03*
X144697056Y-131697056D03*
X145400000Y-130000000D03*
%TD*%
%TO.C,H1*%
X75600000Y-65000000D03*
X76302944Y-63302944D03*
X76302944Y-66697056D03*
X78000000Y-62600000D03*
D21*
X78000000Y-65000000D03*
D20*
X78000000Y-67400000D03*
X79697056Y-63302944D03*
X79697056Y-66697056D03*
X80400000Y-65000000D03*
%TD*%
D22*
%TO.C,J8*%
X126420000Y-133100000D03*
D23*
X128960000Y-133100000D03*
X131500000Y-133100000D03*
X134040000Y-133100000D03*
X136580000Y-133100000D03*
%TD*%
D20*
%TO.C,H2*%
X140600000Y-65000000D03*
X141302944Y-63302944D03*
X141302944Y-66697056D03*
X143000000Y-62600000D03*
D21*
X143000000Y-65000000D03*
D20*
X143000000Y-67400000D03*
X144697056Y-63302944D03*
X144697056Y-66697056D03*
X145400000Y-65000000D03*
%TD*%
D24*
%TO.C,J11*%
X76600000Y-81976750D03*
X76600000Y-70976750D03*
D25*
X86600000Y-73976750D03*
D26*
X86600000Y-78976750D03*
%TD*%
D20*
%TO.C,H4*%
X75600000Y-130000000D03*
X76302944Y-128302944D03*
X76302944Y-131697056D03*
X78000000Y-127600000D03*
D21*
X78000000Y-130000000D03*
D20*
X78000000Y-132400000D03*
X79697056Y-128302944D03*
X79697056Y-131697056D03*
X80400000Y-130000000D03*
%TD*%
M02*
